<?xml version="1.0" standalone="no"?>
<!DOCTYPE svg PUBLIC "-//W3C//DTD SVG 20010904//EN"
 "http://www.w3.org/TR/2001/REC-SVG-20010904/DTD/svg10.dtd">
<svg version="1.0" xmlns="http://www.w3.org/2000/svg"
 width="372.000000pt" height="105.000000pt" viewBox="0 0 372.000000 105.000000"
 preserveAspectRatio="xMidYMid meet">
<metadata>
Created by potrace 1.16, written by Peter Selinger 2001-2019
</metadata>
<g transform="translate(0.000000,105.000000) scale(0.100000,-0.100000)"
fill="#000000" stroke="none">
<path d="M802 770 l-103 -120 -91 0 c-86 0 -90 1 -76 18 87 99 148 186 139
195 -14 14 -13 14 -121 -116 l-85 -102 -56 -6 c-31 -3 -62 -10 -69 -14 -12 -7
-10 -35 5 -97 6 -21 -1 -40 -29 -85 -52 -84 -47 -133 10 -119 30 8 63 74 64
127 0 27 11 50 46 95 25 32 51 62 57 66 15 9 167 10 167 1 0 -3 -26 -45 -59
-92 -91 -133 -130 -221 -112 -250 11 -17 31 -5 31 19 0 26 60 139 115 216 25
35 102 130 170 210 69 81 125 153 125 161 0 31 -31 5 -128 -107z"/>
<path d="M2117 857 c-39 -13 -107 -61 -107 -77 0 -15 27 -12 33 3 7 20 91 57
127 57 43 0 89 -26 96 -54 9 -37 -20 -81 -70 -106 -45 -21 -106 -24 -113 -5
-2 6 18 34 43 63 37 42 43 53 29 58 -9 4 -17 5 -19 3 -1 -2 -36 -42 -77 -89
-41 -47 -85 -100 -98 -118 -12 -18 -37 -40 -54 -48 -75 -38 -101 -89 -73 -142
48 -93 267 -75 361 29 30 34 35 46 35 88 0 38 -6 56 -25 79 -31 37 -31 38 -1
46 39 10 85 54 95 93 15 54 -6 96 -58 116 -48 19 -71 20 -124 4z m36 -239 c54
-28 58 -101 10 -159 -99 -117 -367 -98 -303 22 6 10 16 19 22 19 7 0 6 -5 -2
-15 -7 -8 -9 -23 -5 -32 5 -15 13 -10 48 29 39 44 47 48 107 58 36 5 84 10
107 10 44 0 66 16 37 27 -9 3 -53 2 -98 -4 -45 -5 -83 -9 -84 -7 -7 5 34 53
53 62 21 10 79 5 108 -10z"/>
<path d="M2823 708 c-11 -13 -39 -49 -63 -82 -37 -51 -45 -57 -69 -53 -41 8
-122 -33 -162 -82 -39 -49 -93 -85 -114 -77 -23 9 -18 21 35 85 39 47 47 61
36 70 -10 9 -26 -3 -71 -54 -68 -78 -119 -119 -139 -112 -22 9 -10 38 40 98
49 60 52 69 25 69 -20 0 -101 -95 -114 -135 -17 -50 28 -69 100 -43 27 10 38
10 53 0 28 -17 50 -15 85 8 29 19 29 19 48 0 22 -24 48 -25 89 -4 28 15 31 14
52 -5 29 -27 45 -26 88 3 35 23 36 23 52 5 19 -23 47 -24 88 -3 28 15 31 14
52 -5 28 -26 42 -26 85 0 24 14 37 17 44 10 14 -14 53 -14 78 -1 10 6 19 7 19
2 0 -18 -37 -41 -115 -72 -85 -34 -138 -68 -156 -101 -16 -31 -3 -66 27 -73
42 -11 107 28 186 113 40 42 110 103 155 135 45 31 85 61 88 66 13 21 -17 8
-71 -30 -32 -22 -59 -38 -61 -36 -6 6 21 53 59 104 21 27 28 46 22 52 -6 6
-32 -13 -73 -56 -79 -81 -108 -101 -123 -86 -9 9 -2 27 30 71 45 64 51 81 28
81 -8 0 -35 -28 -60 -62 -59 -84 -136 -128 -136 -79 0 33 78 137 135 180 30
23 62 53 71 66 22 34 12 57 -23 53 -21 -2 -41 -21 -84 -78 -53 -70 -60 -75
-95 -76 -53 -1 -116 -36 -156 -84 -54 -68 -128 -103 -128 -61 0 33 78 137 135
180 62 47 90 84 81 106 -8 22 -50 18 -73 -7z"/>
<path d="M1130 615 c-8 -9 -10 -27 -6 -46 5 -24 0 -38 -25 -69 -33 -41 -97
-90 -117 -90 -21 0 -13 26 28 83 22 30 40 60 40 66 0 26 -31 7 -70 -45 -37
-46 -110 -104 -133 -104 -20 0 -3 52 29 88 19 23 33 46 30 51 -4 5 -30 13 -60
16 -67 9 -112 -10 -161 -68 -69 -81 -23 -152 65 -100 26 15 29 15 45 0 22 -22
47 -21 95 3 33 17 40 18 40 5 0 -18 40 -29 72 -20 13 4 53 36 89 72 38 37 72
62 78 59 16 -10 14 -21 -14 -62 -48 -71 11 -99 96 -46 54 35 74 58 59 67 -5 3
-29 -10 -52 -29 -62 -54 -103 -46 -58 11 11 14 20 36 20 49 0 13 -9 28 -20 34
-13 7 -20 21 -20 38 0 26 -15 52 -31 52 -4 0 -12 -7 -19 -15z"/>
<path d="M1426 528 c-36 -37 -55 -63 -48 -66 7 -2 22 4 33 14 17 16 22 16 29
4 16 -24 12 -77 -6 -84 -27 -10 -52 -7 -58 9 -8 21 -36 19 -36 -4 0 -23 16
-37 52 -46 31 -8 99 25 163 79 45 38 42 60 -3 27 -51 -36 -72 -24 -72 40 0 20
9 35 30 51 37 27 38 38 3 38 -20 0 -43 -16 -87 -62z"/>
</g>
</svg>
