<?xml version="1.0" standalone="no"?>
<!DOCTYPE svg PUBLIC "-//W3C//DTD SVG 20010904//EN"
 "http://www.w3.org/TR/2001/REC-SVG-20010904/DTD/svg10.dtd">
<svg version="1.0" xmlns="http://www.w3.org/2000/svg"
 width="1600.000000pt" height="900.000000pt" viewBox="0 0 1600.000000 900.000000"
 preserveAspectRatio="xMidYMid meet">

<g transform="translate(0.000000,900.000000) scale(0.100000,-0.100000)"
fill="#000000" stroke="none">
<path d="M0 8691 c0 -273 2 -310 16 -315 20 -8 34 1 34 20 0 8 7 17 15 20 8 4
15 13 15 20 0 18 37 33 62 26 12 -3 17 -10 13 -22 -5 -16 2 -18 67 -18 40 0
79 5 85 10 10 8 13 5 13 -8 1 -18 1 -18 15 0 15 20 15 19 15 -1 0 -16 8 -21
39 -26 42 -5 90 -34 91 -54 0 -15 44 -28 61 -18 6 4 15 2 20 -6 6 -11 11 -10
27 4 19 17 52 23 52 10 0 -5 16 -9 35 -11 25 -1 44 -11 64 -34 27 -31 30 -32
48 -16 10 9 27 18 38 21 14 3 12 5 -10 6 -28 2 -29 3 -7 11 12 5 22 15 22 22
0 7 5 5 13 -5 6 -10 24 -20 39 -22 15 -3 39 -10 53 -15 19 -7 24 -7 19 2 -5 8
0 9 17 4 57 -18 88 -18 116 1 15 11 35 19 43 18 8 0 21 6 27 15 11 13 14 13
23 0 15 -23 12 -30 -11 -30 -12 0 -23 -8 -26 -20 -3 -11 -9 -20 -14 -20 -14 0
-10 -20 7 -37 13 -13 13 -17 2 -24 -23 -15 -28 -10 -28 27 l0 37 -32 -34 c-18
-19 -36 -33 -40 -32 -4 2 -10 -8 -14 -22 -3 -14 -14 -30 -24 -35 -16 -9 -17
-18 -12 -82 2 -22 22 -24 22 -3 0 8 5 15 10 15 6 0 10 -7 10 -15 0 -8 9 -15
20 -15 11 0 20 5 20 12 0 6 3 9 6 5 12 -11 -15 -42 -38 -43 -13 -1 -30 -4 -39
-8 -10 -4 -23 -1 -33 9 -18 19 -43 14 -72 -14 -12 -11 -43 -21 -75 -25 -103
-12 -124 -19 -146 -44 -13 -14 -23 -22 -23 -19 0 3 -20 -1 -45 -10 -25 -8 -45
-21 -45 -28 0 -19 156 -17 186 2 11 7 24 10 28 6 4 -4 10 -2 14 5 5 6 17 13
27 15 48 9 113 33 145 55 22 15 42 21 57 17 16 -4 23 -1 23 9 0 15 54 31 92
28 10 0 20 3 23 8 3 4 22 6 43 3 28 -4 42 0 59 17 13 11 23 16 23 10 0 -5 5
-10 11 -10 5 0 7 5 4 10 -4 6 5 10 19 10 14 0 26 -4 26 -9 0 -5 21 -9 48 -8
26 1 61 -2 77 -7 22 -6 26 -5 15 3 -13 9 -13 11 1 11 8 0 24 7 35 15 16 13 16
14 2 9 -22 -8 -24 12 -2 20 31 12 154 7 154 -6 1 -8 6 -6 14 4 12 17 14 17 30
-1 11 -12 14 -21 7 -26 -14 -8 -8 -48 7 -53 7 -2 12 3 12 12 0 9 4 16 8 16 4
0 13 14 19 30 8 20 18 30 32 30 17 0 21 -6 21 -30 0 -16 5 -30 10 -30 6 0 10
4 10 9 0 8 52 31 71 31 4 0 11 -9 14 -20 9 -30 43 -25 51 7 5 19 2 30 -11 40
-18 12 -17 13 8 13 22 0 27 -5 27 -25 0 -38 36 -68 72 -61 26 5 30 3 25 -13
-3 -14 0 -17 14 -14 11 3 21 -1 25 -11 3 -9 10 -16 15 -16 14 0 11 48 -3 53
-7 3 -1 6 15 6 21 1 27 -4 27 -19 0 -13 7 -20 20 -20 13 0 20 -7 20 -20 0 -23
28 -40 64 -40 22 0 26 -4 26 -30 0 -16 -4 -30 -9 -30 -5 0 -8 8 -7 18 1 13 -6
16 -29 14 -16 -2 -43 -10 -60 -18 -27 -13 -31 -13 -42 3 -12 16 -13 16 -13 0
0 -9 -6 -17 -14 -17 -9 0 -12 -7 -9 -19 3 -11 -2 -21 -11 -24 -9 -4 -16 -13
-16 -21 0 -13 -20 -26 -40 -26 -4 0 -10 9 -13 20 -3 11 -12 20 -20 20 -8 0
-18 7 -21 16 -3 8 -10 12 -16 9 -5 -3 -10 -1 -10 4 0 16 -12 13 -39 -9 -16
-14 -20 -24 -14 -33 15 -18 24 -63 17 -81 -3 -9 -14 -16 -23 -16 -14 0 -14 -2
-1 -10 24 -16 55 -12 78 10 24 23 71 26 93 8 9 -7 23 -25 32 -40 11 -17 23
-25 32 -22 9 4 29 1 46 -6 26 -11 30 -17 25 -39 l-6 -26 20 24 c14 17 27 22
46 18 14 -2 31 1 38 9 11 11 19 11 40 1 14 -7 26 -15 26 -18 0 -3 11 -4 25 -1
14 2 23 8 20 12 -3 4 3 11 12 14 9 4 20 1 24 -5 4 -8 9 -4 14 10 5 18 9 20 22
10 12 -10 16 -10 24 2 4 8 6 21 3 30 -2 10 2 19 11 23 12 4 21 -6 35 -37 11
-23 20 -48 20 -56 0 -8 3 -11 7 -8 3 4 7 28 7 54 1 41 4 48 33 64 28 16 37 17
70 6 44 -15 73 -12 73 9 0 8 5 14 10 14 6 0 9 -5 8 -12 -2 -7 6 -13 17 -14 11
-1 25 -3 30 -4 6 -1 20 -2 33 -1 18 1 23 6 20 23 -2 16 3 24 17 26 11 3 33 15
51 28 38 29 54 30 54 4 0 -11 5 -20 10 -20 6 0 10 10 10 23 0 12 7 31 15 41
20 26 78 11 83 -22 2 -15 11 -22 25 -23 12 -1 27 -2 32 -4 6 -1 15 -3 20 -4 6
-1 3 -6 -5 -12 -11 -8 -5 -9 23 -4 39 6 107 -12 107 -28 0 -5 23 -7 52 -5 29
3 62 1 74 -4 15 -7 30 -5 53 6 38 20 51 14 51 -22 0 -19 3 -23 9 -13 5 7 10 9
12 4 7 -16 76 -63 82 -56 4 3 7 15 7 25 0 10 5 18 10 18 6 0 10 -11 10 -25 0
-14 4 -25 8 -25 16 0 32 24 32 48 0 21 2 22 15 12 12 -10 18 -10 30 0 27 23
16 0 -12 -25 l-28 -24 35 -15 c19 -8 36 -11 37 -8 5 14 94 5 106 -11 7 -8 22
-18 34 -22 19 -5 23 -2 23 14 0 12 3 21 8 21 11 0 34 -16 33 -24 -3 -18 0 -26
9 -26 6 0 10 7 10 15 0 8 5 15 10 15 6 0 10 -11 10 -24 0 -20 7 -24 53 -32 31
-6 51 -14 50 -21 -2 -7 4 -10 12 -7 11 5 15 -1 15 -23 0 -37 8 -45 32 -32 22
12 28 9 33 -18 2 -10 4 -20 4 -22 1 -2 8 2 16 9 8 7 15 25 15 41 0 15 7 34 15
43 8 8 15 19 15 25 0 6 5 11 10 11 18 0 11 -66 -10 -85 -16 -15 -17 -19 -5
-31 16 -16 45 -19 45 -4 0 6 5 10 10 10 6 0 10 -9 10 -20 0 -11 6 -20 13 -20
20 0 45 -31 49 -60 2 -14 9 -24 16 -22 19 4 34 -48 29 -103 -5 -59 20 -119 44
-104 23 14 30 10 19 -11 -8 -14 -7 -25 2 -40 17 -26 28 -26 25 1 -1 12 4 24
10 26 8 3 13 -5 13 -21 0 -19 5 -26 19 -26 25 0 71 -42 71 -64 0 -9 11 -22 25
-28 32 -14 70 4 91 43 11 21 20 26 46 25 29 -2 33 -5 33 -29 -1 -30 24 -39 26
-9 2 23 2 24 -6 45 -5 13 -2 17 13 17 33 0 41 21 37 101 -4 72 -22 143 -51
202 -18 38 -18 54 4 67 12 8 13 10 1 7 -15 -5 -24 10 -47 83 -6 19 -14 53 -17
75 -3 22 -14 74 -25 115 -10 41 -28 116 -40 165 -11 50 -27 115 -36 145 -9 30
-20 73 -25 95 -4 22 -11 49 -13 60 -3 11 -13 54 -22 95 -8 41 -20 82 -25 92
-5 9 -9 30 -9 46 0 34 -12 46 -55 56 -43 10 -75 34 -75 55 0 10 -7 21 -15 25
-8 3 -15 12 -15 21 0 12 -10 14 -51 10 -45 -3 -83 -15 -51 -15 24 0 12 -40
-14 -46 -28 -7 -74 9 -74 26 0 5 -7 10 -15 10 -8 0 -15 6 -15 13 0 21 -17 40
-29 32 -9 -5 -9 -10 0 -21 13 -16 6 -20 -62 -28 -41 -5 -132 7 -274 35 -27 5
-81 13 -120 18 -38 5 -82 14 -97 20 -16 6 -28 8 -28 6 0 -2 -12 0 -27 6 -16 7
-46 13 -68 15 -57 5 -277 37 -355 53 -103 20 -378 68 -555 97 -49 8 -117 19
-150 25 -33 5 -81 12 -108 14 -26 3 -56 9 -66 15 -11 5 -40 10 -65 10 -25 0
-46 5 -48 12 -2 6 -28 13 -59 14 -62 3 -115 12 -144 24 -11 4 -65 13 -120 19
-163 19 -220 28 -242 39 -14 8 -267 11 -847 12 l-826 0 0 -309z m640 -296 c0
-8 -4 -15 -10 -15 -5 0 -10 7 -10 15 0 8 5 15 10 15 6 0 10 -7 10 -15z m605
-95 c10 -11 27 -20 38 -20 17 0 18 -2 6 -16 -12 -14 -14 -14 -26 2 -13 17 -14
17 -29 -4 -20 -29 -34 -19 -34 24 0 39 17 45 45 14z m51 -90 c16 14 35 4 28
-14 -3 -8 -1 -17 5 -20 16 -10 -9 -56 -29 -56 -10 0 -23 7 -31 16 -14 17 -20
66 -7 58 4 -3 8 3 9 13 0 11 3 13 6 5 4 -10 8 -10 19 -2z m-138 -76 c12 -4 22
-12 22 -20 0 -8 -6 -11 -15 -8 -8 4 -15 1 -15 -5 0 -14 -33 -14 -47 0 -6 6 -9
18 -6 25 6 15 25 17 61 8z m1162 -24 c0 -5 -5 -10 -11 -10 -5 0 -7 5 -4 10 3
6 8 10 11 10 2 0 4 -4 4 -10z m0 -83 c0 -16 -47 -43 -57 -33 -4 4 3 16 17 26
30 23 40 25 40 7z m233 -82 c-6 -17 -25 -15 -31 3 -2 7 5 12 17 12 14 0 19 -5
14 -15z m-263 -135 c0 -5 -9 -10 -21 -10 -11 0 -17 5 -14 10 3 6 13 10 21 10
8 0 14 -4 14 -10z m230 -100 c0 -5 -4 -10 -10 -10 -5 0 -10 5 -10 10 0 6 5 10
10 10 6 0 10 -4 10 -10z m1410 -7 c0 -10 -4 -14 -8 -8 -4 6 -11 13 -16 18 -5
4 -2 7 7 7 10 0 17 -8 17 -17z m66 -5 c-3 -13 -6 -31 -6 -40 0 -21 -36 -25
-43 -5 -7 19 21 67 39 67 12 0 15 -6 10 -22z m260 -125 c18 -24 17 -30 -5 -36
-13 -3 -21 2 -25 16 -9 37 8 48 30 20z m398 -122 c3 -5 -1 -14 -8 -20 -16 -13
-32 2 -21 19 8 12 22 13 29 1z m-14 -101 c0 -5 -4 -10 -10 -10 -5 0 -10 5 -10
10 0 6 5 10 10 10 6 0 10 -4 10 -10z m24 -29 c3 -5 -1 -11 -9 -15 -9 -3 -15 0
-15 9 0 16 16 20 24 6z m-15 -143 c12 -15 11 -18 -3 -18 -10 0 -16 8 -16 22 0
12 1 19 3 17 1 -2 9 -12 16 -21z m111 -121 c0 -14 -20 -37 -32 -37 -4 0 -8 11
-8 25 0 18 5 25 20 25 11 0 20 -6 20 -13z"/>
<path d="M3026 8989 c3 -5 -2 -12 -10 -15 -9 -3 -16 -12 -16 -19 0 -14 27 -28
40 -20 4 3 10 -5 13 -16 5 -19 10 -21 44 -15 21 4 45 16 53 27 9 11 26 21 37
22 12 0 20 3 18 5 -2 3 6 13 18 23 22 18 21 18 -43 17 -36 -1 -50 -3 -32 -5
17 -2 32 -9 32 -15 0 -11 -78 -1 -95 12 -14 11 -66 10 -59 -1z"/>
<path d="M5191 8946 c4 -30 11 -62 17 -71 17 -31 24 13 12 72 -16 73 -39 73
-29 -1z"/>
<path d="M5912 8967 c-7 -18 -12 -45 -12 -59 0 -14 -4 -38 -9 -54 -5 -16 -12
-41 -15 -56 -4 -16 -10 -28 -15 -28 -5 0 -12 12 -16 28 l-7 27 -15 -35 c-19
-47 -30 -219 -14 -229 13 -9 -3 -152 -40 -346 -11 -60 -24 -132 -29 -160 -5
-27 -14 -72 -19 -100 -16 -81 -42 -217 -51 -266 -4 -25 -14 -65 -21 -90 -7
-24 -14 -55 -15 -69 -3 -25 -61 -366 -70 -408 -7 -35 -30 -11 -38 40 -4 22 -9
38 -12 35 -3 -2 3 -59 12 -126 13 -84 15 -124 8 -131 -7 -7 -28 -8 -52 -4 -40
6 -43 10 -72 70 -16 35 -30 72 -30 82 0 10 -4 22 -9 28 -4 5 -26 60 -47 122
-32 96 -36 115 -24 122 9 6 19 5 24 0 15 -15 23 -12 29 10 6 24 -12 38 -24 19
-4 -7 -12 -10 -16 -5 -4 4 3 16 16 27 25 21 22 55 -4 45 -9 -3 -15 0 -15 9 0
9 -10 15 -25 15 -19 0 -25 -5 -24 -22 0 -13 4 -32 8 -43 10 -25 -5 -46 -26
-38 -12 5 -15 2 -11 -8 8 -20 27 -117 32 -157 4 -40 37 -70 48 -44 6 15 7 15
7 1 1 -18 28 -77 46 -99 19 -23 37 -110 26 -123 -5 -7 -11 -21 -13 -32 -4 -18
-6 -17 -18 7 -16 33 -28 38 -112 45 -78 7 -75 12 -54 -91 10 -44 21 -73 34
-82 16 -11 18 -20 12 -52 -9 -49 -17 -62 -40 -62 -14 0 -20 -11 -25 -50 -7
-48 -9 -52 -56 -76 -28 -13 -82 -50 -120 -82 -235 -190 -253 -207 -286 -266
-19 -33 -31 -66 -28 -74 8 -21 -26 -57 -37 -40 -5 8 -6 2 -2 -15 5 -22 3 -26
-10 -21 -9 3 -16 2 -16 -3 0 -11 -73 -111 -125 -170 -66 -76 -94 -129 -96
-181 -1 -26 4 -57 11 -68 7 -12 10 -29 7 -38 -5 -14 -26 -16 -145 -16 -95 0
-150 4 -173 14 -19 7 -76 16 -128 20 -52 3 -98 11 -101 16 -4 6 -43 12 -89 15
-82 4 -174 18 -221 35 -14 5 -52 16 -85 26 -33 9 -64 21 -70 25 -9 6 -104 37
-300 96 -84 26 -242 42 -405 43 -220 0 -372 -27 -552 -100 -42 -16 -83 -30
-91 -30 -8 0 -20 -7 -27 -15 -7 -8 -17 -15 -22 -15 -13 0 -142 -78 -200 -121
-25 -19 -56 -42 -69 -51 -29 -21 -62 -46 -99 -75 -15 -13 -31 -23 -34 -23 -4
0 -29 -21 -55 -47 -27 -27 -73 -70 -104 -98 -87 -78 -225 -214 -307 -305 -41
-45 -92 -100 -113 -122 -20 -22 -37 -42 -37 -45 0 -2 -12 -17 -27 -33 -16 -15
-41 -45 -58 -65 -16 -20 -49 -58 -72 -83 -24 -26 -43 -51 -43 -57 0 -6 -11
-22 -25 -37 -14 -15 -25 -31 -25 -36 0 -6 -7 -12 -15 -16 -8 -3 -15 -15 -15
-26 0 -12 -11 -33 -25 -48 -14 -15 -25 -35 -25 -44 0 -10 -3 -18 -7 -18 -5 0
-17 -18 -27 -40 -11 -22 -23 -40 -28 -40 -4 0 -8 -9 -8 -20 0 -11 -4 -20 -10
-20 -5 0 -10 -7 -10 -16 0 -17 -27 -71 -47 -92 -7 -7 -13 -24 -13 -38 0 -13
-4 -24 -9 -24 -5 0 -11 -8 -15 -17 -3 -10 -15 -31 -26 -48 -20 -30 -44 -78
-63 -125 -25 -62 -44 -97 -63 -116 -12 -12 -24 -30 -26 -40 -3 -15 -11 -18
-42 -16 -49 4 -116 33 -116 51 0 10 -3 11 -14 2 -8 -7 -35 -9 -75 -5 l-61 7 0
-185 0 -185 41 -18 c44 -20 109 -77 128 -112 9 -18 9 -28 0 -45 -26 -51 -39
-58 -106 -58 l-63 0 0 -210 0 -210 43 6 c33 5 46 2 62 -13 11 -11 26 -18 33
-15 9 3 11 -3 7 -20 -5 -19 -2 -24 14 -24 11 0 18 4 15 7 -2 4 0 10 6 14 5 3
10 25 11 48 0 33 2 38 9 22 7 -17 9 -15 9 13 1 17 -3 32 -9 32 -5 0 -10 11
-10 24 0 13 -7 26 -15 30 -8 3 -15 12 -15 21 0 8 -4 15 -10 15 -5 0 -10 7 -10
15 0 9 -7 18 -15 21 -17 7 -20 40 -5 49 11 7 100 -82 100 -100 0 -7 11 -24 25
-39 14 -15 25 -36 25 -47 0 -11 5 -17 10 -14 6 3 10 15 10 26 0 10 5 19 12 19
6 0 9 3 5 6 -10 10 49 54 74 54 18 0 29 11 42 41 11 22 16 46 13 54 -3 8 -1
17 3 20 5 3 7 14 4 24 -4 14 1 20 19 23 30 5 76 -21 120 -66 19 -20 37 -36 40
-36 9 0 218 -212 218 -220 0 -5 -29 -25 -65 -45 -36 -20 -65 -40 -65 -45 0 -5
-10 -12 -22 -16 -13 -4 -26 -11 -29 -16 -3 -5 -13 -10 -22 -12 -9 -1 -33 -16
-52 -33 -19 -18 -52 -42 -72 -54 l-36 -22 -25 29 c-13 16 -33 39 -43 52 -10
12 -19 27 -19 33 0 6 -6 9 -12 6 -9 -3 -13 6 -14 28 0 18 -10 42 -22 55 -20
22 -22 22 -29 4 -3 -10 -18 -29 -32 -42 l-26 -23 40 3 c35 3 40 0 43 -20 2
-13 10 -26 18 -29 8 -3 14 -12 14 -20 0 -8 5 -11 10 -8 6 3 10 1 10 -6 0 -6
11 -22 25 -35 14 -13 25 -26 25 -29 0 -3 15 -19 32 -36 30 -27 33 -28 39 -10
4 10 14 21 22 24 16 6 57 -18 57 -34 0 -12 80 -89 92 -89 4 0 8 4 8 9 0 12 81
94 87 88 2 -3 13 2 24 11 11 9 23 17 27 17 4 1 39 16 77 34 39 18 80 37 92 42
13 5 23 13 23 19 0 20 39 9 122 -34 46 -24 95 -47 109 -51 13 -3 54 -18 91
-32 57 -22 68 -30 73 -54 4 -16 11 -31 16 -34 5 -4 9 -15 9 -26 0 -10 3 -19 8
-19 4 0 16 -17 27 -38 11 -20 36 -54 55 -76 87 -95 150 -156 164 -156 10 0 16
-13 18 -42 3 -40 5 -43 34 -44 25 -1 53 -23 147 -115 144 -142 178 -172 225
-200 20 -13 39 -27 40 -31 2 -4 10 -8 17 -8 8 0 20 -6 27 -13 28 -27 217 -107
293 -124 62 -14 122 -18 272 -17 177 0 218 5 293 32 8 3 18 6 23 7 4 2 9 4 12
5 3 1 10 4 15 5 6 1 12 4 15 5 3 1 8 3 13 4 4 1 25 11 47 21 22 11 47 19 55
18 20 -3 43 16 57 50 7 15 19 27 27 27 8 0 17 8 21 18 5 15 68 52 89 52 5 0
21 14 37 31 31 33 30 54 -2 46 -25 -7 -33 7 -14 23 8 7 15 23 15 35 0 12 8 33
19 46 30 39 108 189 136 264 15 39 33 108 41 155 17 101 18 312 3 396 -12 68
-70 240 -101 299 -11 22 -24 51 -28 65 -13 46 -163 234 -282 353 -65 65 -118
125 -118 133 0 17 36 55 44 47 3 -4 6 -2 6 4 0 12 78 68 109 78 14 4 53 29 87
56 34 27 68 49 75 49 8 0 27 14 43 30 16 17 33 30 38 30 14 0 107 74 112 90 3
8 20 21 37 29 17 8 47 27 65 43 37 33 40 33 194 22 85 -6 111 -15 106 -37 -1
-7 -1 -9 1 -5 8 14 117 -4 129 -21 10 -13 18 -13 53 -3 22 7 53 23 67 36 14
13 34 30 43 38 31 26 423 55 407 30 -6 -10 164 -10 179 -1 6 4 24 9 40 13 17
3 44 9 60 12 48 11 108 9 113 -4 2 -7 15 -12 28 -12 14 0 34 -5 45 -11 15 -8
24 -7 35 2 13 10 17 10 26 -2 8 -11 9 -10 4 5 -8 24 39 76 68 76 26 0 41 10
49 33 5 14 11 16 26 7 13 -6 22 -7 26 0 10 16 65 7 65 -11 0 -50 95 -50 188
-2 76 39 130 50 163 32 32 -16 77 -21 98 -9 14 8 13 9 -5 10 -12 0 -33 6 -46
13 -34 17 -91 84 -83 97 3 5 24 10 46 10 22 0 49 5 60 11 30 16 57 2 79 -41
24 -46 24 -50 7 -50 -15 0 -37 -53 -28 -68 3 -5 38 -9 78 -8 74 1 95 -6 76
-25 -6 -6 -9 -17 -6 -25 4 -10 10 -8 26 7 26 24 42 20 42 -11 0 -24 39 -47 50
-30 12 19 42 9 64 -21 l23 -31 -23 -23 c-13 -12 -36 -35 -50 -51 -31 -35 -66
-64 -77 -64 -4 0 -6 -24 -6 -53 2 -70 3 -74 13 -58 6 9 13 -1 25 -37 42 -127
221 -206 342 -153 27 12 59 32 71 43 31 29 37 19 8 -14 -44 -51 -101 -73 -185
-72 -117 2 -208 52 -250 139 -12 25 -27 45 -34 45 -13 0 -58 -52 -168 -195
-34 -44 -64 -82 -67 -85 -3 -3 -17 -20 -29 -38 l-24 -34 49 -46 c26 -26 76
-69 111 -96 34 -27 62 -52 62 -55 0 -4 -21 -24 -46 -46 -52 -45 -72 -75 -51
-75 7 0 22 8 33 18 11 11 30 17 42 15 12 -1 22 2 22 8 0 6 12 9 28 7 21 -2 28
-9 30 -30 4 -31 4 -31 -93 -132 -74 -77 -105 -98 -195 -125 -33 -11 -55 -23
-55 -32 0 -13 -19 -40 -52 -74 -6 -7 -30 -15 -53 -19 -22 -3 -38 -10 -35 -15
3 -5 -1 -15 -7 -23 -7 -7 -25 -28 -40 -46 -24 -29 -28 -31 -38 -15 -8 14 -9
12 -4 -12 4 -16 8 -32 10 -34 1 -1 21 14 42 35 78 76 107 94 184 113 26 6 67
25 91 41 25 17 48 30 51 30 4 0 22 14 42 32 19 18 56 40 82 51 26 10 68 30 95
43 26 14 52 22 57 19 6 -4 21 0 33 8 18 11 146 33 147 24 10 -60 10 -77 0 -77
-6 0 -34 -22 -62 -50 -28 -27 -54 -50 -58 -50 -5 0 -35 -13 -67 -29 -32 -16
-70 -32 -84 -35 -14 -3 -36 -15 -49 -26 -14 -12 -36 -20 -54 -19 -32 2 -100
-23 -111 -41 -11 -18 45 -23 88 -7 23 9 61 21 85 27 24 6 46 18 49 26 3 7 10
14 17 14 6 0 24 7 40 15 16 9 36 13 44 10 8 -3 26 8 43 26 23 25 31 28 48 20
25 -14 67 -14 92 -1 15 8 19 7 19 -4 0 -8 -6 -16 -12 -19 -7 -3 -2 -5 12 -4
14 1 28 6 32 11 11 17 19 1 24 -48 7 -65 -16 -93 -125 -149 -49 -25 -98 -50
-108 -56 -50 -26 -132 -60 -160 -66 -18 -4 -35 -11 -38 -16 -4 -5 -20 -9 -37
-9 -40 0 -108 -64 -88 -83 10 -9 14 -9 17 0 2 7 11 9 19 6 9 -3 26 -1 40 6 13
6 34 15 47 20 37 15 208 60 272 72 41 7 79 23 119 50 38 25 63 36 70 30 6 -5
57 -12 113 -16 88 -7 107 -11 130 -31 16 -13 46 -33 68 -44 22 -10 33 -19 24
-20 -8 0 -34 9 -57 20 -26 13 -61 20 -98 20 -31 0 -99 7 -151 16 -73 13 -97
14 -106 4 -9 -9 -8 -14 6 -24 9 -7 17 -19 17 -25 0 -7 12 -23 27 -37 21 -19
27 -35 27 -67 1 -38 3 -42 26 -42 19 0 25 -5 24 -21 0 -13 5 -20 12 -17 6 2
14 -3 18 -12 3 -9 2 -13 -4 -10 -6 3 -10 1 -10 -4 0 -6 20 -11 45 -11 25 0 45
-4 45 -10 0 -5 -7 -10 -16 -10 -12 0 -15 -9 -12 -36 2 -25 -3 -40 -15 -49 -9
-7 -17 -17 -17 -23 0 -11 -89 -102 -100 -102 -4 0 -38 -30 -77 -67 -83 -81
-147 -131 -188 -149 -16 -7 -43 -27 -58 -43 -16 -17 -34 -31 -39 -31 -10 0
-116 -76 -128 -91 -3 -4 -32 -21 -65 -39 -33 -18 -62 -35 -65 -39 -15 -22
-225 -131 -250 -131 -6 0 -10 -4 -10 -10 0 -5 -6 -10 -14 -10 -8 0 -28 -12
-46 -26 -30 -26 -332 -184 -351 -184 -14 0 -11 22 6 40 15 16 11 18 -57 28
-40 6 -88 14 -105 18 -27 5 -33 3 -33 -10 0 -9 8 -20 18 -23 9 -4 28 -18 42
-31 14 -14 19 -21 11 -17 -11 6 -13 2 -7 -18 3 -14 2 -29 -4 -32 -5 -3 -10
-15 -10 -26 0 -11 -4 -17 -10 -14 -5 3 -10 -1 -10 -9 0 -9 5 -16 10 -16 6 0
-1 -12 -15 -27 -40 -43 -47 -59 -30 -73 19 -15 19 -34 2 -49 -11 -9 -11 -24 0
-88 20 -110 10 -217 -23 -256 -24 -28 -25 -34 -19 -111 5 -63 11 -85 27 -98
18 -16 20 -27 16 -120 -3 -57 -8 -111 -13 -120 -6 -16 0 -18 54 -18 54 0 61
-2 61 -20 0 -11 7 -20 15 -20 8 0 15 9 15 20 0 20 7 20 355 20 348 0 355 0
355 -20 0 -20 7 -20 425 -20 418 0 425 0 425 20 0 11 7 20 15 20 8 0 15 -9 15
-20 0 -11 5 -20 10 -20 6 0 10 9 10 20 0 19 7 20 96 20 61 0 93 -4 89 -10 -3
-6 -15 -10 -26 -10 -10 0 -19 -4 -19 -10 0 -6 32 -10 75 -10 53 0 75 4 75 13
0 8 3 8 9 -2 7 -11 10 -9 14 10 4 23 4 23 6 2 1 -29 31 -30 38 -2 5 19 12 20
77 19 39 -1 94 -2 122 -1 50 1 51 1 46 31 -3 23 11 61 56 153 33 67 73 150 88
185 16 34 33 62 40 62 7 0 15 7 18 16 3 8 11 12 17 8 8 -4 8 0 -1 15 -9 18 -6
29 22 72 29 45 33 48 40 30 11 -30 15 -26 11 11 -4 32 -4 32 12 13 16 -19 16
-19 10 8 -5 18 -3 27 5 27 6 0 9 4 6 8 -3 5 4 16 16 26 17 15 22 16 29 5 5 -8
9 -17 9 -21 0 -5 5 -8 11 -8 6 0 7 5 2 13 -12 19 -14 47 -4 47 5 0 14 -12 20
-27 10 -27 11 -26 5 7 -4 26 -3 31 5 20 18 -26 12 -57 -15 -75 -38 -25 -94
-85 -138 -148 -21 -31 -43 -54 -48 -51 -5 3 -8 0 -7 -7 2 -8 -3 -25 -10 -38
-11 -19 -15 -21 -23 -10 -8 11 -8 10 -4 -4 6 -18 -19 -74 -37 -88 -5 -3 -8 -9
-6 -13 3 -10 -20 -68 -63 -159 -21 -43 -38 -85 -38 -93 0 -12 163 -14 1163
-15 1039 -1 1154 -2 1082 -15 -44 -8 -84 -16 -90 -19 -5 -2 393 -2 885 -1 775
3 905 5 970 19 59 13 139 16 379 17 l303 0 -5 23 -6 22 16 -23 15 -22 928 0
928 0 79 29 c176 67 303 86 526 78 95 -3 188 -10 207 -15 19 -6 47 -13 62 -16
19 -4 26 -11 22 -21 -4 -8 -1 -15 5 -15 6 0 10 6 9 12 -3 15 71 12 87 -3 5 -5
17 -9 27 -9 10 0 26 -9 35 -19 16 -19 34 -20 470 -21 l453 0 0 270 0 271 -29
32 c-17 17 -33 43 -36 57 -4 14 -15 34 -25 45 -27 30 -130 186 -130 197 0 5
-16 33 -35 62 -19 29 -35 57 -35 61 0 5 -17 29 -39 55 -21 25 -55 71 -75 103
-20 31 -41 57 -46 57 -5 0 -27 24 -48 53 -22 28 -100 108 -174 177 -74 69
-152 141 -174 161 -21 20 -76 74 -120 120 -45 46 -117 118 -160 159 -97 92
-184 187 -184 201 0 6 -15 16 -34 24 -18 8 -45 28 -59 45 -14 16 -30 30 -35
30 -5 0 -17 17 -28 38 -10 20 -22 38 -26 40 -3 2 -19 14 -35 28 -15 13 -31 24
-35 24 -4 0 -21 13 -38 30 -17 16 -34 30 -37 30 -3 0 -13 7 -22 15 -9 8 -45
39 -81 67 -36 29 -69 58 -73 65 -4 7 -23 19 -41 27 -18 8 -62 44 -96 80 -35
36 -69 66 -76 66 -6 0 -14 6 -17 13 -3 7 -38 35 -78 62 -41 27 -82 56 -91 65
-34 30 -222 160 -232 160 -3 0 -41 28 -86 63 -45 34 -105 76 -133 94 -29 17
-57 36 -63 41 -17 15 -326 222 -331 222 -2 0 -28 15 -56 34 -126 82 -307 187
-502 291 -320 172 -381 207 -493 288 -37 27 -98 67 -137 90 -38 22 -106 64
-150 92 -44 29 -104 67 -132 85 -34 20 -53 39 -53 51 0 10 5 19 10 19 6 0 10
-4 10 -10 0 -5 4 -10 10 -10 5 0 2 13 -7 28 -15 25 -15 31 0 62 19 40 24 121
12 196 -6 40 -3 62 10 98 14 36 16 61 11 117 -7 72 -22 119 -38 119 -4 0 -8
13 -8 29 0 51 -19 84 -78 137 l-56 51 -4 197 c-4 210 -2 219 45 237 13 5 23
15 23 23 0 10 -6 13 -15 10 -18 -7 -18 9 -1 91 8 34 18 59 25 58 6 -2 11 2 11
8 0 6 -7 8 -15 5 -24 -9 -27 14 -10 69 26 86 15 233 -24 321 -29 64 -36 51
-11 -20 23 -67 36 -156 24 -156 -5 0 -27 28 -49 63 -27 42 -40 57 -43 45 -2
-10 8 -32 22 -50 31 -41 41 -69 50 -133 l7 -50 -24 50 c-13 28 -45 78 -71 112
-41 55 -45 64 -34 82 7 11 19 22 27 23 21 4 -117 118 -151 125 -15 3 -28 12
-30 20 -3 12 -6 12 -22 0 -15 -11 -17 -20 -11 -43 4 -16 10 -23 12 -16 3 6 9
10 14 6 18 -11 -2 -24 -37 -24 -31 0 -34 2 -24 19 15 29 13 33 -12 25 -34 -10
-38 -24 -17 -48 11 -11 16 -22 10 -24 -5 -2 -7 -11 -4 -22 3 -10 -3 -35 -13
-55 -17 -37 -17 -38 2 -52 17 -13 15 -14 -25 -11 -49 3 -78 31 -51 48 13 8 12
10 -2 10 -10 0 -34 24 -54 55 -21 30 -51 64 -68 75 -43 26 -108 98 -101 110 3
6 -2 10 -12 10 -10 0 -27 7 -37 15 -25 19 -37 19 -30 1 7 -19 -36 -31 -126
-32 -41 -1 -88 -3 -105 -5 -16 -1 -75 6 -130 16 -98 18 -101 19 -155 71 -59
57 -139 99 -169 89 -20 -6 -37 -48 -22 -53 24 -8 61 -54 61 -75 0 -32 -8 -37
-37 -26 -20 7 -28 4 -47 -16 -28 -30 -38 -31 -59 -7 -13 14 -14 21 -5 30 10
10 7 17 -10 35 -20 19 -22 19 -16 3 5 -13 1 -23 -11 -32 -24 -18 -35 -18 -35
0 0 26 -25 23 -52 -5 -17 -18 -37 -28 -50 -26 -20 2 -23 -5 -35 -86 -12 -80
-27 -117 -50 -117 -4 0 -34 -16 -66 -35 -70 -42 -92 -43 -129 -8 -24 23 -38
28 -86 28 -117 2 -160 -24 -148 -91 l7 -33 -78 5 c-92 7 -104 0 -126 -66 -13
-40 -13 -46 2 -57 14 -11 14 -12 -4 -13 -14 0 -26 -14 -40 -45 -11 -26 -26
-45 -35 -45 -19 0 -109 -31 -130 -45 -8 -6 -33 -17 -55 -26 -25 -11 -39 -23
-37 -32 1 -9 -5 -17 -15 -19 -20 -5 -73 18 -73 30 0 14 -137 113 -170 122 -48
14 -100 -10 -101 -47 -1 -15 -1 -32 0 -37 1 -5 0 -15 -3 -23 -4 -9 -21 -1 -63
30 -115 86 -313 197 -352 197 -20 0 -33 22 -26 43 3 6 -11 30 -30 51 -19 22
-35 43 -35 48 0 4 -13 8 -29 8 -17 0 -32 4 -35 9 -10 16 -136 34 -195 27 -46
-5 -61 -3 -71 9 -7 8 -16 12 -21 9 -5 -3 -16 2 -25 10 -8 9 -26 16 -39 16 -13
0 -45 9 -70 20 -26 11 -80 29 -119 39 -63 17 -106 35 -272 112 -22 10 -45 19
-50 19 -5 0 -24 15 -42 34 -26 27 -42 34 -88 39 -30 3 -61 11 -68 17 -8 5 -21
8 -30 4 -9 -3 -32 -3 -50 0 -28 5 -37 13 -45 39 -12 37 -11 77 2 94 11 15 -1
92 -19 118 -8 11 -14 32 -14 48 0 16 -4 36 -9 45 -9 18 3 139 19 182 5 14 12
104 15 200 7 209 12 250 31 250 16 0 19 26 4 35 -5 3 -14 25 -20 48 -6 23 -17
56 -25 72 -8 17 -19 51 -24 76 -6 25 -13 53 -16 61 -5 13 1 16 29 16 20 0 36
-4 36 -9 0 -5 5 -9 10 -9 6 0 10 9 10 20 0 11 6 20 14 20 8 0 13 -8 12 -17 -1
-13 7 -18 24 -19 14 -1 41 -11 60 -23 19 -11 42 -21 51 -21 9 0 24 -9 33 -19
10 -11 24 -17 32 -14 7 3 21 -2 29 -11 9 -9 25 -16 36 -16 16 0 19 5 14 20 -5
16 -2 20 15 20 13 0 24 -8 27 -18 3 -12 26 -26 61 -39 43 -15 58 -25 60 -42 3
-15 13 -24 34 -28 17 -3 33 -13 35 -22 5 -19 76 -45 81 -30 5 12 42 -9 42 -24
0 -7 9 -18 20 -25 11 -7 20 -21 20 -31 0 -21 32 -37 51 -26 6 4 26 -9 45 -29
37 -40 51 -43 80 -21 10 8 22 15 27 15 13 0 7 -33 -10 -53 -18 -19 -17 -19 14
-13 18 4 34 3 38 -3 8 -14 75 -14 75 0 0 16 48 -44 59 -75 11 -28 36 -35 45
-11 3 8 2 15 -3 15 -5 0 -8 10 -7 23 1 16 7 21 23 20 15 -2 24 6 33 27 l12 30
41 -30 c45 -33 82 -39 91 -14 9 23 8 24 -14 24 -11 0 -20 4 -20 9 0 5 -13 14
-30 20 -35 12 -38 26 -9 41 14 8 19 19 17 37 -3 30 -28 44 -28 17 0 -16 -1
-16 -18 -1 -10 10 -21 14 -25 11 -10 -10 -87 -14 -87 -4 0 6 13 10 30 10 23 0
31 5 36 25 3 14 10 23 14 20 10 -6 32 20 23 28 -10 11 -20 8 -37 -8 -15 -15
-38 -20 -79 -16 -14 1 -16 5 -7 20 15 29 13 31 -25 31 -43 0 -44 13 -4 50 17
15 28 33 25 39 -10 15 -56 14 -56 -1 0 -7 -7 -4 -16 7 -12 17 -16 18 -24 5
-12 -19 -20 -10 -30 33 -7 35 -7 35 21 27 22 -7 29 -5 29 6 0 8 5 14 11 14 6
0 9 16 7 38 -3 36 -4 37 -40 36 -27 -1 -38 3 -38 14 0 9 7 13 20 9 21 -5 45
16 35 33 -4 6 5 10 21 10 49 0 12 20 -45 25 -29 2 -61 11 -70 20 -10 8 -23 15
-29 15 -7 0 -12 6 -12 14 0 8 -9 17 -19 21 -11 3 -23 15 -26 26 -4 10 -13 19
-21 19 -8 0 -14 5 -14 10 0 18 -18 11 -25 -10 -9 -28 -25 -25 -58 10 -16 17
-35 30 -42 30 -8 0 -20 10 -26 22 -11 20 -13 20 -24 5 -13 -18 -36 -22 -49 -9
-4 4 -13 7 -19 7 -7 0 -18 12 -25 28 -14 29 -31 34 -49 16 -9 -9 -19 -9 -41 0
-16 7 -33 11 -38 10 -5 -1 -17 1 -28 6 -11 5 -26 3 -39 -4 -19 -12 -20 -11
-15 32 4 35 2 44 -8 40 -7 -2 -10 -11 -8 -18 9 -22 -18 -30 -32 -9 -26 38 -36
45 -54 39 -15 -5 -23 2 -35 31 -8 20 -12 40 -9 46 12 18 -6 58 -26 58 -16 0
-19 5 -14 28 6 38 -10 61 -33 46 -14 -9 -21 -8 -31 2 -7 8 -11 14 -10 15 2 0
11 2 22 4 36 7 43 25 16 45 l-25 20 43 0 c23 0 42 -4 42 -10 0 -5 9 -2 20 7
11 10 20 26 20 36 0 10 -9 21 -20 24 -11 3 -20 9 -20 14 0 5 -7 9 -15 9 -9 0
-16 14 -20 38 -3 20 -10 53 -15 73 -12 45 -12 49 0 49 6 0 10 -7 10 -15 0 -8
7 -15 16 -15 14 0 15 7 10 39 -6 41 15 103 29 82 4 -8 13 -3 26 11 18 22 20
22 33 5 12 -16 18 -17 37 -6 13 6 36 12 51 11 24 -1 28 3 28 29 0 16 -5 29
-10 29 -6 0 -18 16 -27 35 l-17 35 -426 0 -426 0 -12 -33z m812 -32 c4 -11 -1
-15 -19 -15 -16 0 -25 6 -25 15 0 8 9 15 19 15 10 0 21 -7 25 -15z m76 -25 c0
-5 -4 -10 -9 -10 -6 0 -13 5 -16 10 -3 6 1 10 9 10 9 0 16 -4 16 -10z m-283
-332 c-3 -8 -6 -5 -6 6 -1 11 2 17 5 13 3 -3 4 -12 1 -19z m-27 -49 c0 -5 -4
-9 -10 -9 -5 0 -10 7 -10 16 0 8 5 12 10 9 6 -3 10 -10 10 -16z m76 -167 c-22
-5 -30 3 -21 18 5 8 11 7 22 -2 15 -12 14 -13 -1 -16z m52 -51 c4 -24 -15 -54
-29 -45 -11 6 -12 58 -2 68 12 12 28 0 31 -23z m545 -278 c-7 -2 -21 -2 -30 0
-10 3 -4 5 12 5 17 0 24 -2 18 -5z m230 -270 c-7 -2 -19 -2 -25 0 -7 3 -2 5
12 5 14 0 19 -2 13 -5z m167 -273 c0 -5 -7 -10 -16 -10 -8 0 -12 5 -9 10 3 6
10 10 16 10 5 0 9 -4 9 -10z m-1330 -310 c0 -11 -7 -20 -15 -20 -13 0 -14 4
-5 20 6 11 13 20 15 20 3 0 5 -9 5 -20z m-30 -170 c0 -5 -5 -10 -11 -10 -5 0
-7 5 -4 10 3 6 8 10 11 10 2 0 4 -4 4 -10z m-3 -72 c-3 -8 -6 -5 -6 6 -1 11 2
17 5 13 3 -3 4 -12 1 -19z m-215 -67 c4 -3 3 -22 -1 -41 -4 -23 -10 -30 -15
-22 -10 17 -26 6 -26 -19 0 -10 -4 -19 -9 -19 -5 0 -12 -16 -15 -36 -4 -19
-14 -38 -22 -41 -7 -3 -14 -11 -14 -19 0 -8 -6 -14 -14 -14 -8 0 -16 -6 -18
-12 -3 -8 -16 -3 -39 16 -51 43 -54 53 -23 81 24 23 25 30 0 26 -5 -1 -6 8 -2
21 3 13 6 29 6 36 0 9 10 12 28 10 19 -2 35 5 54 24 22 23 32 26 65 21 21 -3
41 -8 45 -12z m-22 -106 c-7 -8 -16 -15 -21 -15 -5 0 -1 9 8 20 9 11 19 17 21
15 3 -3 -1 -11 -8 -20z m-502 -22 c-2 -18 -9 -27 -23 -28 -11 -2 -28 -6 -37
-10 -18 -7 -18 -6 -22 37 -1 12 32 25 67 27 14 1 18 -5 15 -26z m467 -63 c-3
-5 -11 -10 -16 -10 -6 0 -7 5 -4 10 3 6 11 10 16 10 6 0 7 -4 4 -10z m4045
-175 c19 -23 8 -26 -19 -4 -16 13 -18 19 -8 19 8 0 20 -7 27 -15z m4 -61 c22
-21 20 -34 -4 -34 -11 0 -20 4 -20 9 0 5 -3 16 -6 25 -8 21 10 21 30 0z m-253
-60 c7 -8 9 -17 6 -20 -6 -7 -57 25 -57 36 0 12 38 0 51 -16z m1387 -222 c6
-18 -15 -14 -22 4 -4 10 -1 14 6 12 6 -2 14 -10 16 -16z m74 -49 c31 -35 101
-169 108 -206 l7 -38 -26 17 c-14 10 -37 28 -50 40 -14 13 -28 19 -31 15 -3
-5 -23 4 -45 20 -22 16 -54 38 -72 50 l-32 21 56 49 c31 27 59 49 63 49 4 0
14 -8 22 -17z m-247 -43 c4 -6 37 -25 73 -43 105 -50 224 -179 193 -210 -6 -6
-33 11 -73 45 -34 29 -91 71 -125 91 -67 41 -103 79 -103 108 0 20 24 26 35 9z
m-4981 -26 c9 -3 16 -12 16 -20 0 -17 -12 -18 -28 -2 -22 22 -16 33 12 22z
m-350 -18 c7 3 23 -7 36 -21 13 -14 32 -25 41 -25 20 0 39 -28 32 -46 -2 -6 5
-14 17 -17 14 -3 20 -13 20 -31 0 -16 6 -26 14 -26 8 0 16 -5 18 -11 2 -6 13
-10 23 -8 19 4 19 5 -3 27 -18 18 -20 24 -8 28 26 10 54 -13 49 -41 -6 -27 11
-35 21 -10 7 18 16 18 38 1 23 -17 12 -55 -18 -67 -15 -5 -24 -17 -24 -29 0
-12 -6 -20 -12 -19 -31 4 -40 -4 -13 -11 20 -4 38 -2 54 8 34 21 131 8 138
-19 3 -12 14 -19 29 -19 34 0 30 -12 -14 -37 -23 -14 -31 -22 -19 -23 25 0 21
-25 -8 -40 -29 -16 -33 -30 -7 -30 10 0 27 -7 38 -15 10 -8 27 -15 36 -15 18
0 38 -28 38 -53 0 -9 -15 -17 -40 -21 -31 -5 -43 -12 -50 -32 -11 -29 -6 -44
16 -44 9 0 14 -11 14 -30 0 -20 -5 -30 -15 -30 -21 0 -19 -16 2 -25 16 -6 15
-8 -6 -24 -17 -13 -20 -20 -12 -26 16 -9 -51 -75 -76 -75 -13 0 -14 -3 -5 -8
21 -14 -64 -6 -97 9 -33 15 -47 40 -35 61 6 10 4 11 -7 1 -22 -22 -30 -15 -27
23 2 23 -2 39 -9 41 -7 3 -44 -26 -83 -64 -100 -98 -119 -113 -139 -113 -17 0
-36 -25 -33 -42 2 -10 -1 -10 -34 2 -17 7 -31 7 -38 1 -7 -6 -17 -6 -26 -1
-20 13 -71 12 -90 0 -8 -5 -11 -10 -7 -10 5 0 -1 -12 -12 -26 -12 -15 -21 -35
-21 -45 0 -19 -33 -35 -50 -24 -18 11 -1 64 31 96 35 36 38 66 7 71 -13 2 -23
10 -23 18 0 9 -12 16 -30 18 -39 5 -58 21 -51 45 4 15 0 18 -15 14 -13 -3 -29
5 -48 24 -16 16 -34 29 -40 29 -6 0 -11 19 -11 43 0 31 -5 45 -20 55 -17 10
-20 23 -20 77 0 49 4 67 15 71 10 4 15 21 15 54 0 33 5 50 15 53 21 9 119 -9
156 -29 26 -13 37 -14 52 -5 20 13 26 10 79 -42 30 -30 61 -33 66 -5 2 9 -3
21 -10 27 -68 56 -80 63 -103 59 -22 -5 -25 -2 -25 23 0 15 -5 31 -10 34 -16
10 8 45 31 45 11 0 22 -7 25 -15 8 -19 24 -9 24 15 0 15 6 17 29 14 22 -4 33
1 49 21 14 17 30 25 52 25 36 0 71 27 51 39 -20 13 -23 58 -4 77 16 16 18 15
27 -5 12 -28 26 -27 26 4 0 14 -4 25 -10 25 -5 0 -7 7 -4 15 4 9 0 15 -10 15
-9 0 -16 5 -16 10 0 6 4 10 9 10 5 0 13 9 16 21 5 14 10 18 17 11 6 -6 16 -8
22 -6z m3366 -31 c0 -8 -7 -15 -15 -15 -26 0 -18 20 13 29 1 1 2 -6 2 -14z
m45 -75 c-3 -5 -16 -10 -28 -10 -18 0 -19 2 -7 10 20 13 43 13 35 0z m-99 -57
c-10 -10 -19 5 -10 18 6 11 8 11 12 0 2 -7 1 -15 -2 -18z m2356 3 c14 -21 8
-63 -12 -81 -19 -18 -20 -17 -20 6 0 13 -3 41 -6 62 -6 34 -5 37 12 30 11 -3
22 -11 26 -17z m-213 -46 c29 -40 21 -70 -20 -70 -35 0 -38 21 -6 43 l22 16
-23 7 c-18 5 -20 9 -11 20 15 18 12 19 38 -16z m79 -58 c14 -21 14 -22 -9 -14
-13 5 -26 17 -27 27 -5 23 17 15 36 -13z m-5823 8 c-3 -5 -12 -7 -20 -3 -21 7
-19 13 6 13 11 0 18 -4 14 -10z m-575 -105 c0 -22 -48 -65 -65 -59 -20 8 -19
37 3 56 33 29 62 30 62 3z m1380 -29 c0 -2 -7 -9 -15 -16 -12 -10 -15 -10 -15
4 0 9 7 16 15 16 8 0 15 -2 15 -4z m-2975 -91 c66 -8 138 -20 160 -25 22 -6
62 -15 89 -20 29 -6 55 -18 63 -30 8 -11 22 -20 33 -20 32 0 188 -167 235
-253 19 -35 64 -161 89 -253 5 -16 -16 -42 -99 -125 -58 -57 -136 -139 -172
-182 -54 -64 -66 -86 -71 -122 -6 -53 18 -96 82 -148 24 -20 49 -50 56 -66 12
-29 10 -34 -36 -98 -27 -37 -85 -104 -130 -148 -86 -85 -229 -205 -244 -205
-5 0 -22 -12 -37 -26 -15 -15 -44 -37 -64 -49 -20 -13 -42 -29 -50 -37 -20
-18 -49 -36 -79 -49 -21 -9 -28 -6 -51 20 -15 17 -29 31 -33 31 -3 0 -27 16
-52 35 -26 20 -49 34 -51 31 -5 -4 -24 9 -71 52 -14 12 -28 22 -31 22 -3 0
-22 14 -41 30 -19 17 -43 33 -52 36 -10 3 -18 9 -18 14 0 5 -13 16 -30 25 -16
8 -39 25 -52 38 -13 12 -39 33 -58 47 -19 13 -37 27 -40 30 -3 4 -12 11 -21
16 -33 19 -137 112 -234 210 -117 119 -145 151 -145 164 0 6 -4 10 -10 10 -5
0 -10 7 -10 15 0 8 -4 15 -9 15 -5 0 -20 17 -32 38 -13 20 -27 39 -31 40 -4 2
-8 10 -8 18 0 14 -7 24 -37 59 -7 7 -13 20 -13 27 0 7 -7 22 -15 32 -8 11 -15
28 -15 38 0 10 -4 18 -10 18 -6 0 -10 28 -10 65 0 37 -4 65 -10 65 -6 0 -10
35 -10 84 0 47 5 88 10 91 6 3 10 13 10 22 0 22 32 93 42 93 4 0 8 9 8 21 0
11 5 17 10 14 6 -3 10 -2 10 4 0 18 74 86 148 135 146 97 426 167 707 179 91
3 296 -10 430 -28z m1701 -69 c-11 -23 -24 -36 -36 -36 -26 0 -25 16 0 32 11
7 20 20 20 29 0 21 12 31 23 20 6 -6 4 -23 -7 -45z m6393 -23 c-5 -21 -9 -42
-9 -46 0 -5 -4 -5 -10 -2 -13 8 -13 41 0 66 18 32 28 21 19 -18z m-3929 -30
c0 -5 -11 -27 -25 -51 -20 -36 -22 -46 -13 -62 11 -18 16 -15 59 33 42 46 49
51 66 39 10 -7 32 -19 50 -27 71 -33 119 -127 111 -217 -4 -41 -16 -60 -100
-165 -52 -65 -103 -134 -113 -153 -32 -63 -28 -12 6 62 29 66 77 145 132 220
24 32 19 41 -48 84 -42 26 -57 44 -36 44 11 0 51 66 51 86 0 20 -10 17 -41
-12 -32 -31 -52 -24 -42 14 6 25 4 25 -29 -12 l-35 -40 -39 19 c-22 10 -56 29
-76 42 -47 29 -53 29 -92 -3 -17 -14 -50 -41 -74 -59 -53 -42 -126 -127 -150
-175 -9 -19 -21 -34 -27 -32 -19 6 -3 47 34 87 21 22 69 81 108 130 85 108
132 137 238 146 39 3 73 6 78 7 4 1 7 -1 7 -5z m-2514 -34 c3 -6 2 -15 -2 -19
-12 -12 -38 5 -30 19 9 14 23 14 32 0z m-641 -14 c159 -8 175 -11 175 -32 0
-23 -116 -133 -141 -133 -10 0 -19 -4 -19 -10 0 -5 -3 -9 -8 -7 -4 1 -25 -17
-46 -40 -21 -24 -45 -43 -52 -43 -13 0 -19 35 -15 81 1 9 -5 22 -14 29 -8 7
-15 21 -15 31 0 12 -7 19 -18 19 -19 0 -72 86 -65 105 1 6 22 9 46 8 23 -1
101 -4 172 -8z m7040 6 c6 -11 -53 -56 -62 -48 -3 3 4 12 16 19 12 7 21 18 21
25 0 15 16 17 25 4z m-6390 -60 c8 -14 -13 -24 -33 -16 -14 5 -14 7 -2 15 19
12 27 12 35 1z m5256 -61 c5 0 9 6 10 13 0 10 2 10 6 0 5 -15 49 -17 57 -4 9
14 89 1 104 -17 8 -11 12 -12 12 -3 0 7 4 10 9 7 5 -4 11 -1 13 6 10 29 28 -8
28 -57 0 -64 -30 -148 -82 -229 -34 -54 -44 -76 -34 -76 11 0 91 130 112 183
14 34 32 76 40 94 8 17 14 38 14 47 0 9 5 16 10 16 6 0 10 -9 10 -20 0 -16 5
-19 29 -14 22 5 35 0 52 -17 13 -13 23 -28 21 -33 -2 -5 4 -6 13 -2 22 8 62
-20 69 -50 4 -13 13 -24 20 -24 8 0 16 -7 20 -15 3 -9 22 -25 43 -38 30 -17
34 -23 19 -25 -16 -3 -17 -10 -11 -50 5 -26 8 -74 9 -108 1 -37 7 -68 16 -78
11 -14 11 -22 2 -37 -16 -24 -15 -29 3 -29 8 0 15 -7 15 -16 0 -10 -6 -14 -15
-10 -9 3 -15 0 -15 -8 0 -8 5 -16 12 -18 6 -2 8 -10 4 -16 -5 -9 -12 -9 -28
-1 -15 8 -19 8 -14 0 10 -15 -35 -14 -56 2 -21 17 -168 0 -168 -18 0 -14 -52
-25 -116 -25 -26 0 -47 -6 -55 -16 -8 -10 -23 -14 -43 -11 -17 3 -39 0 -50 -5
-10 -6 -51 -11 -90 -12 -64 -1 -76 -5 -119 -35 -44 -32 -67 -72 -67 -119 0 -7
-12 -25 -26 -39 -22 -22 -24 -29 -15 -49 6 -13 15 -24 21 -24 5 0 13 -18 16
-40 4 -22 10 -40 15 -40 5 0 9 -10 9 -22 0 -13 7 -32 15 -42 8 -11 15 -17 15
-13 0 3 16 -10 35 -30 19 -20 35 -40 35 -46 0 -5 7 -6 16 -3 8 3 12 2 9 -4 -3
-5 5 -15 19 -22 14 -6 26 -17 26 -25 0 -7 8 -13 18 -13 10 0 23 -5 30 -12 9
-9 12 -8 12 6 0 12 6 16 18 12 77 -22 160 -30 319 -30 150 0 185 2 200 15 10
9 33 22 51 29 18 7 37 21 43 31 5 11 25 25 43 33 32 13 54 54 41 76 -9 15 6
60 21 60 8 0 14 7 14 15 0 19 3 19 50 -5 22 -11 40 -16 40 -10 0 5 7 10 15 10
8 0 15 6 15 13 0 23 -27 87 -33 80 -4 -3 -7 1 -7 10 0 10 4 17 8 17 16 0 62
-25 62 -34 0 -5 9 -16 19 -25 11 -9 20 -23 21 -31 4 -27 0 -41 -10 -35 -5 3
-10 1 -10 -4 0 -6 9 -16 20 -23 11 -7 20 -18 20 -25 0 -7 9 -17 20 -23 11 -6
20 -15 20 -20 0 -6 -9 -10 -20 -10 -11 0 -20 6 -20 14 0 9 -7 12 -20 9 -11 -3
-20 -10 -20 -15 0 -5 4 -7 9 -4 11 7 27 -12 35 -44 5 -17 4 -21 -2 -12 -6 9
-12 -13 -16 -68 -9 -99 -1 -118 9 -23 6 60 8 65 19 45 7 -13 14 -20 17 -18 7
7 3 -124 -5 -160 -3 -16 -2 -36 4 -44 5 -8 10 -11 10 -7 0 4 8 0 18 -10 20
-20 29 -88 12 -98 -5 -3 -10 -17 -10 -31 0 -14 -5 -35 -12 -47 -6 -12 -11 -34
-10 -49 2 -18 -3 -28 -12 -28 -7 0 -22 -12 -31 -27 -10 -15 -44 -54 -77 -86
-32 -33 -58 -68 -58 -78 0 -10 -6 -22 -13 -26 -18 -11 -53 -72 -61 -108 -4
-16 -16 -37 -26 -45 -10 -9 -21 -34 -24 -60 -13 -103 -19 -130 -26 -130 -9 0
-30 -70 -30 -99 0 -12 -4 -20 -9 -16 -6 3 -14 -2 -19 -11 -8 -15 -11 -15 -31
5 -12 12 -19 26 -15 32 3 5 3 18 -1 27 -10 24 -13 158 -5 210 6 31 3 51 -9 75
-18 33 -94 117 -107 117 -4 0 -22 16 -40 35 -17 19 -41 35 -53 35 -14 0 -19 5
-15 15 5 11 -1 15 -19 15 -13 0 -30 6 -36 14 -7 8 -23 17 -36 20 -13 3 -27 15
-30 27 -4 12 -12 18 -21 15 -21 -8 -54 25 -54 54 0 14 4 39 9 56 15 52 -17
164 -46 164 -10 0 -27 13 -38 29 -11 17 -21 28 -24 26 -8 -9 -60 29 -70 51 -6
13 -16 21 -23 19 -20 -7 -36 7 -39 35 -3 17 -10 25 -24 25 -32 0 -32 -49 -1
-80 14 -14 26 -31 26 -36 0 -18 59 -71 73 -66 7 3 5 6 -5 6 -10 1 -18 5 -18
10 0 11 56 -1 95 -21 53 -28 81 -141 29 -121 -7 2 -21 0 -32 -6 -13 -7 -36 -6
-78 4 -64 15 -125 20 -189 17 -37 -2 -42 -6 -67 -52 -33 -60 -34 -71 -8 -88
26 -16 25 -32 -5 -61 -24 -22 -27 -22 -44 -7 -21 19 -94 37 -176 42 -33 2 -65
6 -72 8 -7 3 -15 -4 -18 -15 -4 -13 -15 -19 -35 -19 -19 0 -33 -8 -46 -27 -22
-35 -145 -153 -159 -153 -13 0 -60 -60 -69 -88 -4 -12 -11 -22 -16 -22 -5 0
-16 -12 -23 -27 -21 -43 -7 -158 27 -219 21 -37 28 -65 31 -126 3 -43 1 -78
-3 -78 -13 0 -73 40 -98 66 -14 13 -34 44 -45 69 -12 26 -25 42 -32 39 -18 -6
-44 43 -52 98 -6 37 -17 58 -49 92 -23 24 -49 61 -57 82 -8 22 -26 44 -43 53
-16 9 -40 38 -53 64 -35 65 -49 246 -33 401 7 61 12 125 12 141 -1 17 4 43 10
58 6 16 11 45 12 65 1 29 5 38 21 40 13 2 27 18 38 42 9 22 17 42 17 44 0 3
18 32 40 65 22 33 40 67 40 76 0 8 3 14 8 13 4 -1 21 3 37 8 17 6 33 11 36 10
4 -1 15 6 25 14 26 22 244 16 244 -6 0 -8 7 -17 16 -21 12 -4 8 -9 -16 -19
-18 -8 -43 -14 -56 -14 -13 0 -44 -7 -70 -16 -31 -10 -49 -12 -53 -5 -4 6 -12
7 -21 1 -8 -6 -26 -10 -40 -10 -14 0 -36 -7 -49 -16 -20 -15 -23 -22 -17 -63
4 -32 1 -52 -9 -65 -20 -27 -20 -76 0 -76 9 0 18 -7 21 -15 9 -21 47 -19 61 4
15 23 94 47 183 54 67 6 98 -2 86 -22 -4 -6 2 -15 15 -20 23 -8 23 -8 -4 -15
-15 -3 -27 -11 -27 -16 0 -6 -8 -10 -17 -10 -15 0 -14 -2 4 -15 18 -13 27 -12
76 5 31 11 62 20 70 20 7 0 19 8 28 18 8 9 35 24 59 32 46 15 94 55 97 80 0 8
8 35 17 59 22 59 20 72 -10 96 -24 19 -25 23 -13 43 8 12 19 22 26 22 7 0 13
8 14 18 2 43 -3 227 -7 233 -2 4 -23 2 -46 -3 -24 -5 -54 -9 -67 -9 -14 1 -28
-4 -32 -10 -5 -8 -12 -8 -27 0 -24 13 -94 15 -74 2 9 -5 -8 -10 -45 -14 -32
-4 -67 -9 -78 -12 -11 -3 -26 -1 -34 4 -11 7 -11 12 0 32 7 13 13 27 14 30 1
26 94 60 165 61 8 0 32 6 53 14 20 8 41 13 45 12 23 -4 117 76 107 92 -2 4 5
16 16 26 20 18 20 18 17 -11 -3 -27 0 -30 30 -33 29 -3 32 -1 32 22 0 14 4 26
9 26 5 0 11 10 13 23 2 12 10 22 18 22 20 0 30 15 30 46 0 14 3 29 8 33 7 7 8
11 11 39 1 8 4 8 11 -3 7 -12 11 -10 18 10 5 14 7 32 4 40 -4 11 -1 11 12 -2
23 -23 29 -23 16 1 -15 29 -12 41 8 34 13 -5 15 -3 5 7 -11 12 -5 28 45 105
20 32 62 126 62 140 0 7 7 18 15 25 8 7 16 20 16 29 1 13 2 13 6 -1 2 -10 9
-18 14 -18z m-4071 -124 c0 -2 -7 -9 -15 -16 -13 -11 -14 -10 -9 4 5 14 24 23
24 12z m-4429 -118 c0 -46 5 -108 10 -138 6 -30 13 -76 16 -102 3 -31 13 -53
29 -69 13 -12 24 -33 24 -46 0 -13 4 -23 10 -23 5 0 12 -11 16 -25 3 -14 10
-22 15 -19 5 3 9 -2 9 -11 0 -21 35 -67 44 -58 3 3 6 0 6 -8 0 -17 36 -50 44
-42 3 4 6 -6 6 -22 0 -15 12 -44 27 -64 59 -79 320 -338 433 -431 77 -64 82
-71 63 -92 -10 -11 -11 -18 -5 -18 7 0 12 4 12 9 0 5 8 8 18 6 9 -2 23 -4 30
-4 6 -1 12 -9 12 -19 0 -10 -6 -24 -12 -31 -11 -11 -9 -12 8 -7 14 4 28 1 37
-9 9 -8 25 -15 37 -15 21 0 77 -33 92 -55 5 -6 8 -6 8 0 0 7 3 7 8 0 4 -6 32
-26 62 -47 30 -20 75 -54 99 -76 l45 -39 -25 -15 c-59 -36 -140 -78 -151 -78
-8 0 -30 -9 -51 -20 -56 -30 -199 -88 -275 -112 -36 -11 -75 -26 -86 -33 -12
-8 -34 -15 -51 -18 -29 -3 -39 -7 -141 -52 -27 -13 -72 -30 -100 -40 -27 -9
-77 -30 -110 -46 -34 -16 -71 -29 -83 -29 -11 0 -83 30 -158 66 -76 36 -160
76 -188 89 -191 85 -283 125 -289 125 -3 0 -25 8 -49 19 -23 10 -62 27 -87 37
-25 10 -61 27 -80 38 -19 11 -40 21 -48 22 -7 1 -23 9 -36 17 -18 12 -22 22
-18 45 3 24 -1 34 -23 48 -27 17 -27 19 -20 87 7 77 13 99 25 92 14 -8 22 52
11 74 -16 29 -13 49 8 56 12 3 22 19 26 43 6 32 9 34 16 17 7 -16 8 -13 7 15
-1 34 2 47 23 98 5 13 9 31 9 41 0 10 11 26 25 35 17 11 25 26 25 46 0 19 5
30 14 30 8 0 23 11 34 25 11 14 25 25 32 25 6 0 9 4 6 9 -3 4 4 17 16 27 11
11 27 34 35 52 7 17 18 32 24 32 5 0 7 5 4 10 -4 6 7 26 24 46 17 19 31 41 31
48 0 7 11 22 25 32 14 10 23 24 21 30 -2 6 6 22 19 36 12 13 26 34 29 46 4 11
15 24 25 27 10 3 21 19 25 35 3 18 12 30 21 30 8 0 15 7 15 15 0 8 5 15 10 15
6 0 10 8 10 18 0 14 2 15 10 2 8 -12 10 -11 10 7 0 12 7 28 15 37 8 8 15 20
15 26 0 6 5 8 10 5 6 -3 10 -1 10 6 0 7 3 9 7 6 7 -8 73 60 73 74 0 5 3 8 8 8
21 -4 31 3 26 16 -4 8 -1 22 6 30 7 8 9 15 4 15 -5 0 3 8 16 17 14 10 28 17
33 15 4 -1 7 3 7 8 0 6 5 10 10 10 6 0 10 -35 11 -82z m9824 71 c11 -17 -1
-21 -15 -4 -8 9 -8 15 -2 15 6 0 14 -5 17 -11z m-5830 -189 c-2 -32 -10 -59
-21 -73 -10 -12 -19 -23 -19 -23 0 -1 -10 -5 -22 -8 -19 -6 -23 -4 -23 15 0
12 -8 28 -17 35 -17 12 -17 13 1 20 10 4 21 2 25 -5 9 -13 32 -11 43 4 14 18
8 26 -11 16 -18 -10 -31 -6 -31 10 0 5 7 6 15 3 9 -4 15 0 15 8 0 19 30 59 40
53 4 -3 7 -28 5 -55z m5885 18 c0 -5 -4 -8 -10 -8 -5 0 -10 10 -10 23 0 18 2
19 10 7 5 -8 10 -18 10 -22z m-3622 -101 c3 -31 9 -39 38 -53 18 -9 40 -14 49
-11 21 9 61 -49 46 -67 -9 -11 -9 -15 1 -18 8 -3 13 -32 15 -89 1 -46 7 -93
12 -104 24 -49 51 -115 51 -122 0 -5 11 -24 23 -43 28 -41 44 -140 23 -140 -7
0 -22 11 -32 25 -24 32 -44 32 -44 1 0 -14 -4 -28 -10 -31 -5 -3 -16 -27 -23
-53 -10 -32 -20 -48 -33 -50 -23 -3 -44 -45 -37 -72 3 -12 0 -20 -6 -20 -7 0
-10 -4 -6 -9 3 -6 -2 -14 -11 -19 -12 -6 -15 -18 -12 -36 3 -14 1 -26 -3 -26
-5 0 -9 -9 -9 -20 0 -11 -6 -19 -12 -17 -9 1 -12 -9 -11 -28 0 -16 2 -41 3
-55 0 -14 -6 -56 -15 -95 -9 -38 -16 -90 -15 -115 1 -43 1 -44 -18 -27 -19 17
-20 17 -31 -13 -8 -25 -7 -36 5 -54 17 -27 4 -76 -21 -76 -8 0 -15 -4 -15 -10
0 -5 5 -10 11 -10 7 0 9 -9 6 -21 -4 -13 -1 -19 6 -16 8 3 13 -9 14 -31 2 -38
21 -82 35 -82 13 0 9 20 -7 37 -19 18 -16 48 4 48 16 0 51 -126 51 -182 0 -38
-20 -48 -37 -19 -11 20 -12 20 -18 -7 -5 -19 -3 -33 7 -45 25 -28 29 -52 13
-75 -21 -30 -19 -53 7 -88 14 -18 23 -47 25 -77 1 -26 6 -58 9 -72 7 -22 6
-24 -9 -11 -9 7 -17 20 -17 27 0 8 -4 14 -9 14 -6 0 -11 20 -13 45 -2 34 -6
42 -16 36 -15 -9 -19 -43 -9 -81 8 -29 -19 -73 -31 -53 -4 6 -20 15 -35 18
-20 5 -27 4 -27 -8 0 -8 9 -17 20 -20 11 -3 19 -11 18 -17 -2 -7 6 -17 17 -23
11 -7 23 -16 26 -20 10 -14 39 5 39 26 0 17 3 18 12 9 10 -10 10 -17 0 -32 -6
-11 -12 -29 -12 -40 0 -13 -7 -20 -20 -20 -19 0 -44 -39 -37 -58 1 -4 -2 -9
-8 -12 -6 -3 -11 12 -13 32 -2 24 -10 42 -21 48 -17 8 -18 6 -11 -30 4 -22 7
-41 6 -41 0 -1 -13 -2 -27 -3 -17 -1 -25 2 -22 10 6 17 -18 29 -27 14 -5 -8
-4 -23 0 -36 6 -15 4 -28 -5 -40 -8 -11 -15 -14 -15 -9 -1 6 -7 -3 -13 -19
l-13 -30 -24 24 c-16 16 -25 20 -28 11 -7 -20 -31 20 -32 53 0 28 0 29 -20 11
-14 -13 -17 -21 -9 -31 7 -9 6 -14 -2 -20 -9 -5 -7 -10 7 -16 15 -7 14 -8 -8
-5 -19 3 -25 0 -21 -10 3 -8 -2 -13 -15 -13 -37 0 -52 106 -26 174 5 12 -1 16
-22 17 -16 1 -33 1 -38 0 -14 -3 -46 31 -46 48 0 14 -2 14 -10 1 -5 -8 -7 -32
-3 -53 5 -32 2 -40 -21 -58 -14 -11 -26 -26 -26 -34 0 -7 -6 -15 -14 -18 -9
-4 -12 -14 -9 -26 4 -16 1 -21 -16 -21 -11 0 -20 5 -19 12 2 7 -4 13 -12 14
-8 0 -21 2 -27 2 -8 1 -13 17 -13 40 0 24 3 32 9 23 10 -15 15 -8 25 32 4 15
11 25 16 22 5 -3 11 -1 15 5 3 5 0 10 -8 10 -11 0 -16 19 -21 71 -4 39 -4 75
1 79 4 4 30 10 57 14 47 6 48 5 33 -12 -22 -25 -21 -49 2 -62 24 -12 41 -13
21 0 -11 7 -12 13 -2 32 10 18 21 23 50 23 l37 0 -3 75 c-2 43 -8 79 -15 85
-7 6 -12 19 -12 30 0 11 -6 19 -12 17 -11 -2 -18 25 -14 51 2 10 -25 38 -31
32 -3 -3 -19 14 -36 38 -27 39 -34 43 -64 39 -18 -2 -55 -5 -81 -6 -36 -1 -53
-7 -64 -21 -8 -11 -19 -19 -25 -17 -17 5 -58 -27 -58 -46 0 -9 -4 -23 -9 -31
-24 -38 -116 96 -135 199 -4 19 -13 51 -20 70 -42 111 -43 226 -2 330 16 41
36 81 43 88 7 7 14 21 14 30 1 9 3 24 4 32 1 8 3 31 4 50 1 45 49 100 85 100
13 0 26 5 28 11 2 6 19 12 38 13 26 1 36 7 39 21 2 11 19 39 38 62 20 24 30
43 24 43 -6 0 -11 -6 -11 -12 0 -9 -4 -8 -10 2 -14 22 -13 28 18 57 l28 26
-21 21 c-13 13 -26 46 -34 84 -7 34 -16 62 -22 62 -5 0 -9 10 -9 23 0 16 3 18
9 8 5 -8 14 -10 21 -6 10 6 9 11 -5 22 -17 12 -17 14 -3 26 19 14 58 85 58
104 0 8 19 23 43 34 24 12 47 31 53 43 6 14 30 28 77 43 37 12 75 29 83 38 9
9 29 15 43 13 16 -1 39 7 55 20 16 12 33 23 37 23 5 1 14 3 19 4 6 1 17 3 25
4 8 0 15 8 15 17 0 11 6 15 20 11 15 -4 20 0 20 16 0 11 7 29 16 39 16 17 18
17 30 0 13 -16 15 -15 34 10 12 15 27 25 34 22 8 -3 17 -1 20 5 4 6 13 8 21 4
11 -3 19 5 26 26 14 41 33 35 37 -12z m1928 -36 c-3 -5 -16 -11 -28 -14 -22
-6 -22 -5 -4 8 22 17 40 20 32 6z m-1732 -197 c3 -8 10 -13 15 -10 5 3 14 -8
20 -26 16 -46 13 -56 -9 -29 l-20 23 0 -25 c0 -15 9 -32 21 -41 12 -8 19 -20
17 -26 -6 -18 -56 31 -63 63 -5 17 -3 27 4 27 6 0 11 9 11 20 0 11 -4 20 -10
20 -5 0 -10 5 -10 10 0 16 17 12 24 -6z m-971 -336 c9 -6 8 -11 -3 -18 -23
-15 -30 -12 -29 13 0 12 -2 33 -6 47 -6 22 -5 21 10 -5 9 -16 22 -33 28 -37z
m3434 -24 c-3 -3 -12 -4 -19 -1 -8 3 -5 6 6 6 11 1 17 -2 13 -5z m-1234 -108
c25 -19 22 -23 -31 -35 -26 -5 -55 -13 -64 -16 -12 -5 -16 -2 -14 12 2 11 14
21 32 24 16 4 25 7 19 8 -12 2 16 21 30 21 6 -1 18 -7 28 -14z m1077 4 c0 -5
-9 -10 -21 -10 -11 0 -17 5 -14 10 3 6 13 10 21 10 8 0 14 -4 14 -10z m-1474
-66 c-4 -9 -9 -15 -11 -12 -3 3 -3 13 1 22 4 9 9 15 11 12 3 -3 3 -13 -1 -22z
m1564 -24 c0 -5 -2 -10 -4 -10 -3 0 -8 5 -11 10 -3 6 -1 10 4 10 6 0 11 -4 11
-10z m-30 -16 c0 -2 -9 -4 -21 -4 -11 0 -18 4 -14 10 5 8 35 3 35 -6z m772
-141 c6 -12 7 -30 3 -40 -7 -17 -8 -17 -15 2 -5 11 -8 45 -8 75 1 35 3 42 5
20 2 -19 9 -45 15 -57z m-4853 38 c-11 -31 -65 -88 -75 -79 -8 8 25 58 56 85
14 13 26 23 27 23 1 0 -3 -13 -8 -29z m421 -180 c0 -5 -7 -14 -15 -21 -16 -14
-18 -10 -9 14 6 17 24 22 24 7z m4705 -88 c-2 -10 -4 -21 -4 -25 -1 -5 -5 -8
-10 -8 -4 0 -6 11 -3 25 2 14 8 25 12 25 5 0 7 -8 5 -17z m-4776 -130 c-11
-32 -21 -86 -22 -121 -2 -49 -6 -66 -20 -73 -9 -6 -15 -14 -12 -19 3 -4 -2
-10 -10 -14 -8 -3 -12 -12 -9 -19 4 -12 -8 -15 -63 -14 -38 1 -73 -2 -78 -5
-14 -8 -85 -20 -85 -14 0 2 27 32 60 65 33 34 60 65 60 69 0 5 20 35 45 66 25
32 45 62 45 66 0 8 90 70 102 70 4 0 -2 -26 -13 -57z m4741 20 c0 -1 -11 -13
-25 -27 l-25 -25 0 23 c0 12 3 25 6 29 5 5 44 6 44 0z m100 -63 c14 -34 7
-133 -10 -138 -6 -2 -8 -7 -5 -12 3 -5 -8 -22 -25 -38 -16 -17 -30 -37 -30
-45 0 -23 -26 -27 -49 -8 -18 16 -19 20 -6 24 8 4 20 27 26 52 7 26 20 52 30
58 25 15 24 34 -1 42 -24 7 -26 30 -5 39 8 3 15 11 15 17 0 11 28 38 41 39 4
0 12 -14 19 -30z m-8517 -69 c45 -38 117 -112 117 -121 0 -5 5 -10 10 -10 6 0
10 -6 10 -12 0 -7 16 -23 36 -36 19 -12 38 -30 41 -40 4 -9 26 -35 49 -57 53
-49 83 -94 135 -197 167 -332 154 -665 -35 -945 -34 -50 -117 -143 -127 -143
-6 0 -21 -12 -34 -26 -14 -15 -25 -24 -25 -20 0 3 -8 -2 -19 -11 -119 -111
-281 -152 -516 -129 -70 7 -163 40 -178 63 -4 7 -13 13 -20 13 -16 0 -68 45
-81 71 -6 12 -15 21 -19 20 -5 -1 -15 6 -23 16 -8 11 -13 13 -14 6 0 -8 -8 -5
-20 7 -22 22 -26 40 -10 40 14 0 12 30 -2 34 -7 3 -25 7 -40 10 -16 4 -28 12
-28 18 0 6 -9 21 -20 33 -19 20 -19 23 -5 35 14 12 14 15 -1 32 -15 16 -16 21
-4 44 12 22 11 29 -5 57 -10 17 -18 42 -17 55 1 13 -5 34 -14 47 -15 23 -15
25 0 25 9 0 21 12 26 28 6 15 15 35 20 44 7 12 7 32 0 60 -13 58 -14 55 18 86
25 24 57 83 57 105 0 5 18 21 39 37 21 16 47 43 57 60 11 17 27 30 39 30 21 0
40 27 33 47 -2 6 9 19 25 27 31 16 41 33 43 69 0 12 3 16 6 9 4 -10 11 -8 29
9 25 24 33 68 12 70 -7 0 3 6 22 13 26 9 37 21 44 44 5 18 13 32 17 32 21 0
-7 91 -35 111 -4 4 -3 10 3 14 9 5 9 10 0 21 -16 20 16 31 38 13 15 -12 16
-11 11 9 -4 15 -2 22 8 22 8 0 14 6 14 13 0 20 67 59 118 68 26 5 49 14 50 19
2 6 8 10 14 10 6 0 30 18 54 40 45 41 58 43 97 11z m6852 -21 c3 -5 2 -10 -4
-10 -5 0 -13 5 -16 10 -3 6 -2 10 4 10 5 0 13 -4 16 -10z m-9084 -108 c8 -21
14 -23 61 -20 51 2 108 -20 108 -43 0 -5 16 -8 35 -7 19 1 40 -4 48 -11 8 -6
22 -9 31 -5 18 7 76 -13 76 -26 0 -5 15 -12 33 -16 17 -3 43 -15 56 -25 13
-11 30 -19 37 -19 8 0 14 -6 14 -14 0 -19 20 -32 29 -18 9 15 95 -29 99 -52 2
-11 0 -16 -6 -12 -6 4 -14 1 -19 -6 -4 -7 -35 -24 -68 -37 -33 -13 -82 -37
-109 -53 -33 -20 -58 -28 -78 -26 -15 3 -28 1 -28 -4 0 -4 8 -8 18 -9 14 0 14
-2 -3 -8 -11 -5 -22 -4 -23 1 -2 5 -10 4 -17 -2 -14 -12 -25 -3 -170 135 -23
22 -62 56 -86 75 -24 19 -72 64 -107 99 -54 54 -63 68 -57 90 3 14 15 33 25
43 27 22 88 4 101 -30z m9149 -18 c0 -8 -9 -14 -20 -14 -16 0 -20 -7 -20 -32
1 -63 16 -70 143 -72 77 -1 119 -5 130 -14 10 -9 28 -11 50 -7 31 6 38 3 52
-19 10 -14 26 -26 36 -26 11 0 22 -7 25 -15 4 -8 14 -15 23 -15 23 0 46 -49
31 -64 -17 -17 -158 -11 -178 7 -12 11 -30 14 -63 10 -27 -3 -55 0 -68 7 -19
9 -26 9 -40 -4 -10 -9 -31 -16 -47 -16 -16 0 -45 -5 -64 -11 -38 -12 -167 -30
-214 -30 -17 0 -38 -6 -47 -15 -14 -13 -24 -13 -57 -5 -22 6 -47 9 -55 5 -16
-6 -37 22 -37 49 0 8 17 40 37 71 26 39 44 56 59 56 12 0 33 9 48 21 16 13 35
19 47 16 15 -4 19 -2 15 8 -3 8 4 25 15 38 21 27 25 57 8 57 -5 0 -7 4 -4 10
3 5 35 9 70 8 36 -1 67 1 70 4 12 12 55 5 55 -8z m-9626 -68 c11 -59 -9 -80
-55 -56 -23 13 -24 33 -3 65 24 36 50 32 58 -9z m1848 -99 c22 -23 25 -31 15
-43 -7 -8 -16 -20 -22 -27 -25 -31 -49 -92 -46 -119 2 -27 1 -29 -21 -23 -12
4 -26 12 -29 18 -12 18 -31 -4 -25 -29 4 -14 2 -24 -4 -24 -5 0 -10 7 -10 15
0 8 -4 15 -9 15 -5 0 -11 9 -14 21 -3 12 -10 18 -16 14 -7 -3 -11 2 -11 14 0
12 -3 21 -7 21 -5 0 -16 14 -25 30 -9 17 -13 30 -8 30 6 0 10 10 10 22 0 21
-1 21 -13 3 -8 -10 -16 -14 -19 -9 -3 5 8 20 25 34 l30 24 -6 -25 c-5 -21 -1
-30 24 -48 27 -20 32 -21 47 -8 9 8 27 18 40 21 39 12 24 106 -17 106 -15 0
-14 7 6 30 17 20 17 20 47 -8 17 -15 43 -40 58 -55z m-152 13 c0 -5 -5 -10
-11 -10 -5 0 -7 5 -4 10 3 6 8 10 11 10 2 0 4 -4 4 -10z m6780 -77 c0 -15 -9
-16 -28 -5 -14 9 -33 68 -25 76 8 7 53 -54 53 -71z m-6255 -93 c3 -5 1 -10 -4
-10 -6 0 -11 5 -11 10 0 6 2 10 4 10 3 0 8 -4 11 -10z m7195 -42 c0 -5 6 -8
13 -8 15 0 57 -44 57 -60 0 -5 -10 -18 -22 -29 -20 -19 -20 -22 -5 -39 13 -15
14 -21 4 -32 -8 -9 -8 -11 0 -6 6 3 18 0 26 -8 12 -13 26 -13 83 -4 49 7 78 7
106 -1 21 -7 43 -9 49 -5 6 3 10 0 8 -7 -5 -43 2 -67 24 -74 20 -7 19 -8 -10
-12 -18 -2 -33 -8 -33 -12 0 -4 -11 -13 -23 -18 -19 -9 -23 -17 -19 -41 2 -16
-1 -33 -6 -36 -7 -4 -6 -18 4 -42 8 -20 13 -38 11 -40 -7 -8 -103 -17 -152
-15 -27 1 -63 1 -79 1 -33 -1 -156 41 -156 52 0 14 -40 9 -46 -5 -9 -24 14
-66 49 -88 19 -13 38 -32 43 -42 5 -11 18 -25 29 -31 20 -11 54 -47 55 -57 0
-3 -27 -6 -60 -7 -49 -1 -61 2 -69 17 -14 25 -82 34 -98 12 -8 -12 -15 -13
-23 -5 -8 8 -7 14 4 23 13 11 11 18 -10 59 -14 26 -29 51 -35 56 -5 6 -9 39
-9 75 0 47 -5 70 -17 84 -18 19 -28 78 -39 240 -4 52 -3 92 3 98 10 10 15 1
53 -91 12 -30 26 -62 31 -70 4 -8 22 -42 39 -75 40 -77 48 -87 87 -110 17 -10
37 -29 44 -42 7 -13 19 -23 28 -23 9 0 29 -7 44 -15 15 -8 43 -17 62 -21 28
-5 35 -3 35 10 0 17 -33 39 -44 29 -3 -3 -6 5 -6 19 0 17 -7 27 -20 31 -11 3
-20 13 -20 23 0 9 3 14 6 11 4 -3 15 -2 25 4 14 7 19 6 19 -2 0 -7 9 -6 25 5
13 9 40 16 60 16 19 0 35 4 35 9 0 5 10 12 23 14 13 3 8 5 -16 6 -32 1 -40 6
-53 35 -15 31 -37 47 -106 76 -16 7 -28 18 -28 26 0 8 -4 14 -9 14 -5 0 -12
10 -16 23 -3 12 -11 32 -17 44 -17 34 3 71 36 69 14 0 26 -4 26 -8z m830 -38
c0 -5 -2 -10 -4 -10 -3 0 -8 5 -11 10 -3 6 -1 10 4 10 6 0 11 -4 11 -10z m0
-40 c0 -5 -2 -10 -4 -10 -3 0 -8 5 -11 10 -3 6 -1 10 4 10 6 0 11 -4 11 -10z
m-8947 -38 c-5 -35 -1 -42 51 -94 31 -31 56 -61 56 -67 0 -6 5 -11 10 -11 11
0 14 -33 4 -43 -3 -3 -17 6 -30 20 -13 14 -24 22 -24 18 0 -4 -10 5 -22 21
-13 16 -27 34 -33 39 -50 46 -73 64 -92 70 -19 5 -23 2 -23 -15 0 -12 -4 -19
-8 -16 -4 3 -17 -12 -27 -32 -11 -20 -20 -38 -21 -40 -4 -8 -134 53 -134 62 1
11 55 60 68 62 4 0 15 4 24 8 10 4 23 6 30 4 7 -3 19 1 26 9 16 15 48 17 57 3
4 -6 16 -3 32 10 14 11 29 17 34 14 5 -3 9 0 9 5 0 6 4 11 9 11 5 0 7 -17 4
-38z m-1423 -12 c0 -5 -4 -10 -10 -10 -5 0 -10 5 -10 10 0 6 5 10 10 10 6 0
10 -4 10 -10z m10365 -2 c3 -7 7 -47 8 -88 4 -87 -18 -143 -63 -158 -24 -9
-26 -7 -28 22 -2 17 3 41 9 53 9 17 9 26 0 36 -8 11 -9 22 -1 42 6 15 7 31 4
36 -3 6 -3 21 0 34 5 21 14 26 59 34 4 0 10 -5 12 -11z m-3712 -25 c-7 -2 -19
-2 -25 0 -7 3 -2 5 12 5 14 0 19 -2 13 -5z m57 -3 c0 -5 -9 -10 -20 -10 -11 0
-20 5 -20 10 0 6 9 10 20 10 11 0 20 -4 20 -10z m1984 -27 c-4 -23 0 -31 25
-45 l31 -17 -15 -41 c-8 -23 -23 -54 -34 -69 -11 -15 -27 -45 -35 -67 -15 -36
-20 -57 -46 -181 -17 -84 -19 -89 -42 -115 -13 -14 -28 -34 -35 -44 -12 -18
-13 -18 -26 -2 -10 13 -16 15 -25 6 -13 -13 -16 -3 -12 40 1 20 -2 23 -20 17
-19 -6 -21 -4 -15 17 7 24 29 82 51 135 8 17 14 34 14 39 0 4 7 15 16 25 8 9
16 23 18 31 1 7 16 43 34 81 18 37 32 70 32 73 0 3 11 20 24 37 13 18 30 49
37 70 15 43 31 50 23 10z m-6774 3 c0 -8 -7 -17 -16 -20 -25 -10 -30 2 -8 19
24 18 24 18 24 1z m5826 -93 c-10 -10 -19 5 -10 18 6 11 8 11 12 0 2 -7 1 -15
-2 -18z m94 -29 c0 -14 7 -16 40 -11 29 4 40 1 40 -8 0 -7 -6 -15 -14 -18 -7
-3 -16 -20 -20 -39 l-8 -33 -10 25 c-6 14 -19 42 -30 63 -11 20 -15 37 -9 37
6 0 11 -7 11 -16z m-5970 -100 c0 -8 -5 -12 -10 -9 -6 4 -8 11 -5 16 9 14 15
11 15 -7z m5683 -7 c3 -8 1 -20 -4 -28 -6 -10 -9 -7 -9 14 0 29 5 35 13 14z
m47 -7 c0 -5 -4 -10 -10 -10 -5 0 -10 5 -10 10 0 6 5 10 10 10 6 0 10 -4 10
-10z m1290 -95 c14 -17 100 -181 100 -192 0 -8 -82 -53 -96 -53 -10 0 -14 -3
-11 -7 4 -3 -19 -18 -51 -33 -36 -18 -59 -24 -63 -17 -4 6 -17 0 -32 -15 -34
-35 -73 -43 -95 -22 -11 12 -13 19 -5 21 7 3 9 11 6 19 -3 8 0 21 7 29 7 8 9
15 4 16 -5 0 0 4 12 9 13 5 24 22 29 42 10 46 12 119 3 125 -5 2 -8 -1 -8 -7
0 -6 -5 -8 -11 -5 -13 8 -6 30 9 31 23 3 24 4 11 20 -28 34 -12 96 23 86 14
-3 21 1 25 17 4 16 11 19 28 15 14 -3 28 0 36 9 12 13 17 9 38 -27 13 -22 32
-50 41 -61z m-1770 80 c0 -8 -7 -15 -15 -15 -9 0 -12 6 -9 15 4 8 10 15 15 15
5 0 9 -7 9 -15z m-5275 -28 c0 -24 -17 -47 -34 -47 -6 0 -11 12 -11 26 0 15 4
23 11 19 6 -4 13 3 16 14 7 26 18 18 18 -12z m8015 3 c0 -5 -8 -10 -17 -10
-15 0 -16 2 -3 10 19 12 20 12 20 0z m-8160 -118 c0 -45 -30 -89 -52 -76 -26
15 -98 83 -98 93 0 13 13 16 86 18 l64 2 0 -37z m4845 -32 c4 -6 1 -18 -7 -27
-9 -12 -9 -15 0 -9 6 4 12 3 12 -3 0 -17 -18 -21 -24 -5 -15 38 1 73 19 44z
m5269 -85 c38 -30 63 -55 56 -55 -11 0 -140 98 -140 107 0 10 23 -4 84 -52z
m-5172 -47 c-6 -6 -16 -7 -22 -3 -9 6 -9 9 1 16 17 10 34 0 21 -13z m-4782 0
c6 -36 8 -80 4 -72 -2 6 -15 9 -29 7 -32 -7 -88 42 -65 57 13 8 89 15 90 8z
m10065 -43 c17 -14 26 -25 20 -25 -5 1 -23 12 -40 25 -16 14 -25 25 -20 25 6
-1 24 -12 40 -25z m85 -50 c14 -8 19 -14 10 -14 -8 0 -24 6 -34 14 -25 19 -9
19 24 0z m111 -51 c71 -34 105 -64 42 -38 -63 26 -111 53 -119 65 -4 6 -3 10
2 8 5 -3 39 -18 75 -35z m-4015 -56 c-3 -17 0 -31 10 -39 8 -7 13 -18 10 -25
-3 -7 6 -24 19 -39 14 -15 28 -46 33 -73 8 -45 9 -47 40 -44 18 1 32 -2 32 -6
0 -14 -23 -32 -41 -32 -9 0 -24 -11 -33 -25 -9 -14 -24 -25 -32 -25 -13 0 -14
-3 -5 -14 9 -11 6 -18 -14 -34 -28 -22 -32 -32 -11 -32 8 0 17 7 20 16 5 14 9
14 22 3 10 -8 18 -9 22 -2 10 15 48 33 56 26 12 -12 6 -43 -9 -43 -8 0 -15 -6
-15 -14 0 -7 -12 -18 -27 -23 -68 -24 -101 -33 -129 -33 -19 0 -42 -12 -66
-34 -21 -19 -54 -40 -75 -48 -21 -7 -47 -21 -58 -31 -10 -9 -36 -20 -57 -24
-21 -3 -41 -10 -44 -14 -3 -5 -31 -10 -62 -10 -31 -1 -49 -3 -39 -6 25 -6 21
-22 -7 -29 -14 -3 -32 -17 -41 -30 -13 -21 -23 -24 -75 -24 -49 0 -60 -3 -60
-16 0 -13 -7 -15 -32 -10 -18 3 -69 10 -113 16 -81 9 -105 3 -105 -26 0 -10
-7 -13 -24 -8 -14 3 -40 1 -58 -5 -18 -6 -77 -12 -130 -13 -79 -2 -98 -6 -99
-18 -1 -12 -2 -12 -6 1 -5 20 -48 22 -64 3 -6 -8 -18 -14 -25 -14 -8 0 -14 -7
-14 -15 0 -33 -35 -67 -102 -100 -54 -26 -74 -32 -87 -23 -17 10 -40 2 -166
-58 -28 -13 -55 -24 -62 -24 -6 0 -13 -5 -15 -10 -2 -6 -18 -13 -37 -15 -18
-2 -48 -16 -66 -30 -20 -15 -40 -22 -50 -19 -9 4 -33 2 -53 -4 -51 -15 -130
-23 -111 -11 12 7 12 9 -2 9 -8 0 -20 -5 -27 -12 -12 -12 -12 -12 -27 37 -2 8
-16 15 -29 15 -15 0 -30 8 -36 19 -14 27 -13 34 5 27 11 -4 15 2 15 20 0 14 7
32 16 41 11 11 12 19 5 26 -17 17 -13 31 11 42 12 6 26 24 31 40 5 17 16 37
23 46 8 8 14 22 14 31 0 10 8 13 28 10 23 -3 32 3 58 41 18 25 35 54 39 66 3
11 12 21 20 21 7 0 23 12 34 26 31 39 93 85 108 80 7 -3 25 11 39 30 15 19 40
42 55 50 15 7 34 26 41 41 12 25 20 28 66 31 49 3 68 15 40 25 -22 8 -4 15 23
10 22 -4 25 -9 21 -31 -5 -25 -4 -26 14 -12 51 39 130 131 155 180 16 30 29
49 29 43 0 -21 30 -14 30 6 0 30 15 34 77 20 53 -12 57 -12 74 10 10 12 23 20
28 17 5 -4 12 3 16 14 3 11 13 20 21 20 8 0 24 9 36 20 34 32 117 19 104 -16
-3 -8 -1 -14 4 -14 6 0 10 10 10 23 l1 22 20 -24 c11 -13 22 -21 25 -18 9 8 7
74 -2 88 -5 9 1 11 22 6 24 -5 32 -2 39 16 12 26 38 29 43 5 2 -12 -8 -23 -32
-35 -40 -18 -49 -40 -13 -28 12 4 36 9 53 12 27 4 32 1 44 -26 12 -29 40 -44
40 -21 0 16 32 11 87 -14 41 -20 51 -28 46 -44 -2 -11 0 -23 6 -26 12 -8 51
23 51 41 0 21 27 15 33 -7 3 -11 14 -20 25 -20 30 0 47 -26 34 -54 -11 -26 -6
-38 24 -54 22 -11 55 0 35 12 -15 10 -14 26 2 26 14 0 37 -61 37 -95 0 -14 -3
-15 -15 -5 -8 6 -19 9 -26 5 -7 -5 2 -14 22 -23 19 -9 37 -20 40 -25 4 -5 20
-2 36 7 22 11 33 12 41 4 18 -18 25 -2 14 29 -6 17 -11 21 -11 11 -1 -12 -9
-18 -23 -18 -19 0 -20 2 -6 18 19 21 32 82 18 82 -6 0 -5 9 2 20 7 11 23 20
36 20 30 0 50 20 44 42 -2 11 1 18 9 18 15 0 59 39 59 53 0 5 -6 4 -14 -2 -11
-9 -12 -6 -8 15 3 16 -1 30 -9 35 -12 8 -11 11 4 20 10 6 23 23 29 37 l10 27
10 -25 c5 -14 7 -37 4 -52z m1191 -230 c21 -11 52 -20 69 -19 20 1 37 -6 49
-19 10 -11 24 -20 32 -20 7 0 13 -4 13 -10 0 -5 11 -10 24 -10 14 0 27 -4 30
-9 3 -5 25 -6 50 -4 35 4 48 1 64 -15 16 -16 38 -22 94 -26 40 -2 120 -7 178
-11 131 -8 142 -11 115 -32 -19 -15 -19 -15 5 -10 14 3 36 9 49 13 18 5 23 4
19 -7 -2 -7 -15 -16 -29 -20 -13 -4 -18 -7 -11 -8 8 -1 48 10 90 24 127 42
138 45 152 45 7 0 21 7 30 15 9 8 44 18 78 21 59 7 61 6 67 -18 5 -20 -2 -34
-36 -72 -23 -25 -46 -46 -52 -46 -5 0 -28 -15 -51 -32 -22 -18 -45 -36 -51
-41 -31 -24 -100 -64 -236 -139 -197 -108 -296 -156 -339 -164 -19 -4 -53 -15
-75 -25 -37 -17 -84 -28 -130 -32 -14 -2 -21 5 -23 23 -4 22 -62 95 -62 76 0
-4 -11 5 -23 20 -24 27 -54 26 -43 -1 3 -8 -2 -19 -10 -25 -16 -15 -19 -37 -3
-42 5 -2 7 -11 3 -21 -4 -12 -12 -16 -23 -12 -9 4 -34 9 -56 12 -22 3 -44 12
-48 19 -4 8 -21 14 -36 14 -16 0 -39 11 -54 24 -14 13 -39 30 -56 37 -17 8
-31 18 -31 22 0 5 -4 6 -9 3 -26 -16 -49 80 -28 119 5 11 11 35 13 55 1 19 7
36 13 38 5 2 7 10 4 18 -3 9 2 14 17 14 28 0 62 -19 55 -31 -4 -5 0 -9 7 -9 8
0 19 -12 25 -27 l11 -28 1 30 c1 22 4 26 12 18 9 -9 9 -20 -1 -43 -9 -22 -10
-34 -3 -38 6 -4 19 -26 28 -50 20 -48 33 -54 33 -15 0 15 9 33 21 42 19 14 21
21 12 44 -9 22 -7 30 10 46 14 13 17 21 9 26 -8 5 -11 32 -9 79 3 69 0 92 -22
166 -11 37 1 90 20 90 6 0 27 -10 48 -22z m-971 -66 c1 -16 -3 -21 -12 -18 -8
3 -14 1 -14 -5 0 -9 -37 -3 -50 8 -8 8 44 43 60 40 8 -1 16 -13 16 -25z m35 5
c-13 -13 -26 -3 -16 12 3 6 11 8 17 5 6 -4 6 -10 -1 -17z m2694 -27 c35 -13
105 -70 105 -86 0 -7 -6 -15 -12 -18 -7 -3 -3 -3 10 0 17 4 22 1 22 -15 0 -11
5 -23 12 -27 7 -5 -1 -12 -22 -19 l-34 -12 32 -6 c23 -5 32 -12 32 -27 0 -29
-3 -35 -17 -32 -7 2 -13 -2 -13 -8 0 -5 9 -10 20 -10 11 0 20 -4 20 -10 0 -5
-6 -10 -14 -10 -8 0 -21 -3 -29 -6 -11 -4 -17 4 -22 28 -18 86 -132 198 -201
198 -14 0 -11 7 16 35 36 37 52 41 95 25z m168 -314 c3 -8 -7 -12 -29 -12 -32
1 -41 6 -29 18 11 10 54 5 58 -6z m17 -36 c12 -8 9 -10 -13 -10 -16 0 -26 4
-22 10 8 12 16 12 35 0z m-3 -36 c-3 -3 -12 -4 -19 -1 -8 3 -5 6 6 6 11 1 17
-2 13 -5z m10 -40 c-3 -3 -12 -4 -19 -1 -8 3 -5 6 6 6 11 1 17 -2 13 -5z m38
-28 c6 -2 -11 -5 -37 -7 -30 -3 -48 0 -48 6 0 10 53 10 85 1z m-2691 -76 c-11
-12 -62 -30 -124 -45 -58 -15 -123 -31 -145 -37 -22 -5 -78 -26 -124 -46 -69
-29 -90 -44 -122 -85 -22 -27 -39 -53 -39 -57 0 -5 -17 -19 -37 -31 -21 -13
-41 -27 -44 -32 -4 -5 -12 -1 -18 9 -11 18 -11 18 -9 -1 2 -14 -3 -20 -17 -20
-13 0 -21 8 -23 23 -2 12 1 22 7 22 6 0 11 7 11 16 0 9 6 14 13 11 15 -6 52 7
52 19 1 5 21 29 45 54 25 25 58 60 73 78 18 21 34 31 44 28 8 -4 31 2 52 13
20 10 48 24 64 30 15 6 26 16 25 22 -2 6 3 14 10 16 6 3 12 0 12 -6 0 -20 42
-12 47 9 5 21 53 30 53 10 0 -14 53 -13 67 1 6 6 9 18 6 25 -3 9 2 14 13 14
11 0 37 9 59 19 l40 18 14 -29 c14 -26 13 -30 -5 -48z m2731 20 c16 -31 61
-60 93 -60 22 0 103 -79 154 -150 18 -25 35 -47 38 -50 16 -13 180 -223 180
-230 0 -4 -9 -6 -20 -3 -14 4 -20 0 -20 -11 0 -13 7 -17 32 -14 31 3 34 0 69
-67 20 -38 35 -73 32 -77 -2 -5 -20 -8 -39 -8 -19 0 -34 -5 -34 -11 0 -6 10
-9 23 -8 12 2 33 -1 47 -6 25 -8 25 -8 -10 -20 l-35 -12 45 -8 45 -8 -33 -7
c-48 -11 -48 -16 -1 -24 37 -6 48 -21 16 -21 -23 0 -22 -20 1 -23 21 -3 32
-22 12 -22 -14 0 -12 -20 5 -54 8 -15 15 -33 15 -39 0 -5 7 -15 17 -22 10 -8
12 -14 5 -18 -11 -7 -28 19 -127 198 -43 78 -140 213 -232 325 -34 41 -103
124 -152 183 -49 59 -106 120 -128 136 -46 34 -62 52 -97 114 l-27 47 55 0
c51 0 57 -2 71 -30z m-4475 10 c0 -5 -7 -10 -15 -10 -8 0 -15 5 -15 10 0 6 7
10 15 10 8 0 15 -4 15 -10z m892 -395 c3 -13 3 -27 0 -30 -8 -8 -34 34 -27 45
11 17 22 11 27 -15z m4238 -625 c6 -11 8 -20 6 -20 -3 0 -10 9 -16 20 -6 11
-8 20 -6 20 3 0 10 -9 16 -20z"/>
<path d="M11138 5998 c12 -12 24 -19 27 -16 8 7 -23 38 -38 38 -6 0 -2 -10 11
-22z"/>
<path d="M5748 5685 c-17 -22 -16 -23 4 -28 36 -10 50 4 30 30 l-17 22 -17
-24z"/>
<path d="M5420 5525 c0 -2 5 -15 11 -29 15 -32 34 -39 50 -19 11 13 10 18 -10
34 -21 17 -51 26 -51 14z"/>
<path d="M5800 5350 c-8 -5 -12 -11 -9 -14 7 -8 49 5 49 15 0 12 -21 11 -40
-1z"/>
<path d="M5885 5189 c-10 -15 3 -25 16 -12 7 7 7 13 1 17 -6 3 -14 1 -17 -5z"/>
<path d="M10058 4796 c-25 -20 -74 -52 -107 -71 -34 -20 -61 -39 -61 -42 0
-24 155 54 200 102 39 41 18 49 -32 11z"/>
<path d="M9780 4341 c0 -12 5 -21 10 -21 6 0 10 6 10 14 0 8 -4 18 -10 21 -5
3 -10 -3 -10 -14z"/>
<path d="M10977 4180 c6 -22 23 -38 23 -21 0 17 -12 41 -20 41 -5 0 -6 -9 -3
-20z"/>
<path d="M11040 4145 c0 -9 6 -12 15 -9 8 4 15 7 15 9 0 2 -7 5 -15 9 -9 3
-15 0 -15 -9z"/>
<path d="M11125 3730 c-3 -5 -1 -10 4 -10 6 0 11 5 11 10 0 6 -2 10 -4 10 -3
0 -8 -4 -11 -10z"/>
<path d="M9565 3613 c-30 -8 -88 -54 -78 -64 4 -4 59 -11 121 -15 102 -6 112
-5 112 10 0 10 -13 31 -29 47 -29 29 -69 36 -126 22z"/>
<path d="M10664 3536 c-18 -14 -18 -15 -1 -22 22 -8 46 11 31 26 -7 7 -17 5
-30 -4z"/>
<path d="M7840 4740 c0 -5 5 -10 11 -10 5 0 7 5 4 10 -3 6 -8 10 -11 10 -2 0
-4 -4 -4 -10z"/>
<path d="M7951 4134 c0 -11 3 -14 6 -6 3 7 2 16 -1 19 -3 4 -6 -2 -5 -13z"/>
<path d="M7832 3920 c0 -14 2 -19 5 -12 2 6 2 18 0 25 -3 6 -5 1 -5 -13z"/>
<path d="M7280 3255 c0 -8 7 -15 15 -15 9 0 12 6 9 15 -4 8 -10 15 -15 15 -5
0 -9 -7 -9 -15z"/>
<path d="M7751 2867 c-7 -9 -10 -25 -6 -34 6 -17 7 -17 16 0 6 10 9 25 7 34
-3 15 -4 15 -17 0z"/>
<path d="M7373 2703 c-15 -6 -17 -59 -3 -68 5 -3 20 3 32 15 17 16 20 24 12
37 -12 19 -23 24 -41 16z"/>
<path d="M7225 2670 c4 -6 11 -8 16 -5 14 9 11 15 -7 15 -8 0 -12 -5 -9 -10z"/>
<path d="M7215 2630 c-3 -5 -1 -10 4 -10 6 0 11 5 11 10 0 6 -2 10 -4 10 -3 0
-8 -4 -11 -10z"/>
<path d="M7426 2481 c-4 -7 -5 -15 -2 -18 9 -9 19 4 14 18 -4 11 -6 11 -12 0z"/>
<path d="M11412 3333 c2 -11 13 -19 28 -20 14 -1 19 0 13 3 -7 3 -13 12 -13
20 0 8 -7 14 -16 14 -9 0 -14 -7 -12 -17z"/>
<path d="M2200 2406 c0 -9 5 -16 10 -16 6 0 10 4 10 9 0 6 -4 13 -10 16 -5 3
-10 -1 -10 -9z"/>
<path d="M9918 2603 c6 -2 18 -2 25 0 6 3 1 5 -13 5 -14 0 -19 -2 -12 -5z"/>
<path d="M9840 2522 c0 -22 19 -42 40 -42 12 0 17 9 17 30 0 26 -4 30 -29 30
-20 0 -28 -5 -28 -18z"/>
<path d="M9794 2436 c-10 -8 -16 -17 -12 -21 11 -11 48 5 48 21 0 18 -11 18
-36 0z"/>
<path d="M8866 2403 c-11 -11 -6 -23 9 -23 8 0 15 4 15 9 0 13 -16 22 -24 14z"/>
<path d="M8871 2324 c0 -11 3 -14 6 -6 3 7 2 16 -1 19 -3 4 -6 -2 -5 -13z"/>
<path d="M7780 1745 c0 -15 6 -25 14 -25 7 0 19 -7 26 -15 7 -9 17 -12 21 -8
14 14 -2 50 -27 62 -33 15 -34 15 -34 -14z"/>
<path d="M11295 1410 c4 -6 11 -8 16 -5 14 9 11 15 -7 15 -8 0 -12 -5 -9 -10z"/>
<path d="M8545 1070 c-17 -7 -15 -9 12 -9 17 -1 35 4 38 9 7 12 -22 12 -50 0z"/>
<path d="M8410 1030 c-18 -12 -2 -12 25 0 13 6 15 9 5 9 -8 0 -22 -4 -30 -9z"/>
<path d="M8318 1004 c-16 -8 -28 -19 -28 -24 0 -12 73 14 78 28 5 16 -17 14
-50 -4z"/>
<path d="M11710 840 c0 -5 7 -7 15 -4 8 4 15 8 15 10 0 2 -7 4 -15 4 -8 0 -15
-4 -15 -10z"/>
<path d="M11755 700 c-8 -13 15 -13 35 0 12 8 11 10 -7 10 -12 0 -25 -4 -28
-10z"/>
<path d="M11840 680 c0 -5 7 -10 15 -10 8 0 15 5 15 10 0 6 -7 10 -15 10 -8 0
-15 -4 -15 -10z"/>
<path d="M11835 600 c-3 -5 1 -10 9 -10 8 0 18 5 21 10 3 6 -1 10 -9 10 -8 0
-18 -4 -21 -10z"/>
<path d="M11893 573 c-18 -2 -33 -9 -33 -15 0 -6 10 -8 23 -4 12 3 32 6 45 6
12 0 22 5 22 10 0 6 -6 9 -12 8 -7 0 -28 -3 -45 -5z"/>
<path d="M11910 522 c0 -4 16 -6 35 -4 19 2 35 6 35 8 0 2 -16 4 -35 4 -19 0
-35 -4 -35 -8z"/>
<path d="M11975 491 c-3 -5 2 -11 10 -15 8 -3 17 -1 20 3 3 5 -2 11 -10 15 -8
3 -17 1 -20 -3z"/>
<path d="M11925 480 c3 -5 10 -10 16 -10 5 0 9 5 9 10 0 6 -7 10 -16 10 -8 0
-12 -4 -9 -10z"/>
<path d="M6800 8990 c0 -5 7 -7 15 -4 8 4 15 8 15 10 0 2 -7 4 -15 4 -8 0 -15
-4 -15 -10z"/>
<path d="M7070 8978 c0 -13 -4 -29 -9 -37 -14 -21 -2 -41 24 -41 28 0 33 13
27 63 -3 28 -9 37 -23 37 -13 0 -19 -7 -19 -22z"/>
<path d="M7120 8990 c0 -5 18 -10 40 -10 29 0 40 -4 40 -15 0 -9 6 -12 16 -8
13 5 12 8 -5 24 -21 20 -91 27 -91 9z"/>
<path d="M7305 8990 c3 -5 10 -10 16 -10 5 0 9 5 9 10 0 6 -7 10 -16 10 -8 0
-12 -4 -9 -10z"/>
<path d="M9833 8990 c16 -5 35 -17 43 -27 12 -17 13 -17 14 0 0 18 30 25 30 7
0 -15 -31 -60 -41 -60 -5 0 -9 7 -9 16 0 25 -35 12 -38 -14 -2 -13 2 -29 8
-37 6 -8 9 -19 5 -25 -3 -6 3 -10 14 -10 16 0 21 -6 21 -28 0 -46 24 -68 95
-87 84 -23 146 -13 156 25 l6 25 11 -25 c6 -15 11 -19 11 -9 1 9 13 21 28 28
26 12 26 14 10 25 -23 17 -21 27 8 54 32 31 59 22 81 -29 19 -42 34 -51 34
-20 0 37 12 51 43 51 17 0 27 3 23 8 -11 10 -60 10 -67 -1 -4 -5 -13 -7 -20
-4 -9 3 -1 11 21 20 l35 16 -45 2 c-110 3 -133 10 -114 29 7 7 35 6 85 -4 41
-8 103 -19 139 -25 164 -25 206 -35 218 -50 11 -14 11 -14 6 1 -6 19 9 18 126
-4 30 -6 72 -13 93 -15 20 -3 40 -9 43 -14 3 -5 32 -9 64 -9 69 0 91 -7 83
-26 -3 -8 -9 -11 -14 -8 -5 3 -6 -1 -3 -9 6 -17 55 -29 67 -17 14 12 46 0 52
-21 7 -20 30 -26 40 -9 9 15 -27 50 -52 50 -13 0 -23 5 -23 11 0 7 11 9 29 6
15 -3 52 -9 80 -13 35 -4 48 -10 39 -15 -8 -6 -1 -7 17 -3 17 3 69 -2 115 -11
47 -9 121 -20 165 -26 87 -10 92 -11 240 -34 55 -8 161 -25 235 -36 245 -38
323 -50 565 -89 72 -11 216 -34 320 -50 105 -17 210 -34 235 -40 25 -5 63 -12
85 -14 22 -3 76 -12 120 -21 78 -16 209 -38 330 -55 33 -5 141 -23 240 -40 99
-17 205 -35 235 -40 30 -4 123 -20 205 -34 83 -14 179 -31 215 -36 102 -16
410 -69 460 -79 25 -5 79 -14 120 -20 41 -6 185 -30 320 -52 262 -43 399 -65
468 -75 l42 -7 0 126 c0 111 -2 126 -17 131 -10 3 -72 15 -138 26 -66 12 -139
25 -162 31 -23 5 -55 9 -72 9 -17 0 -40 4 -53 9 -13 5 -61 14 -108 21 -91 12
-168 26 -345 61 -153 30 -196 38 -305 54 -52 8 -115 19 -140 24 -76 16 -163
32 -200 37 -19 3 -82 14 -140 24 -58 11 -134 24 -170 29 -77 11 -222 35 -340
56 -47 9 -184 31 -305 50 -121 20 -285 47 -365 60 -80 14 -199 35 -265 46 -66
11 -142 24 -170 29 -77 14 -214 36 -390 64 -440 70 -665 107 -714 116 -67 12
-1809 12 -1768 0z m27 -64 c0 -3 -4 -8 -10 -11 -5 -3 -10 -1 -10 4 0 6 5 11
10 11 6 0 10 -2 10 -4z"/>
<path d="M6860 8970 c-13 -9 -13 -11 0 -20 10 -6 16 -6 18 0 7 20 -3 30 -18
20z"/>
<path d="M6905 8971 c-7 -12 12 -24 25 -16 11 7 4 25 -10 25 -5 0 -11 -4 -15
-9z"/>
<path d="M3620 8915 c-7 -8 -11 -16 -9 -18 2 -1 13 -7 24 -13 11 -6 31 -34 45
-62 26 -53 48 -72 60 -51 4 6 18 16 30 22 13 7 22 15 21 20 0 4 -1 23 -1 43 0
30 -3 34 -14 25 -18 -16 -45 -4 -39 18 3 14 -3 17 -34 17 -21 0 -45 3 -54 7
-10 5 -21 2 -29 -8z"/>
<path d="M7290 8920 c-8 -5 -10 -10 -5 -10 6 0 17 5 25 10 8 5 11 10 5 10 -5
0 -17 -5 -25 -10z"/>
<path d="M3850 8850 c-12 -8 -9 -10 13 -10 16 0 26 4 22 10 -8 12 -16 12 -35
0z"/>
<path d="M10457 8844 c6 -17 8 -17 21 -1 8 10 6 13 -8 14 -13 1 -17 -3 -13
-13z"/>
<path d="M10510 8850 c0 -5 5 -10 11 -10 5 0 7 5 4 10 -3 6 -8 10 -11 10 -2 0
-4 -4 -4 -10z"/>
<path d="M4510 8830 c0 -11 5 -20 10 -20 6 0 10 -11 10 -24 0 -13 7 -29 15
-36 8 -7 15 -11 16 -9 5 36 4 79 -3 79 -5 0 -7 4 -4 9 3 5 -1 12 -10 15 -26
10 -34 7 -34 -14z"/>
<path d="M10580 8840 c19 -13 30 -13 30 0 0 6 -10 10 -22 10 -19 0 -20 -2 -8
-10z"/>
<path d="M5115 8820 c-3 -5 -5 -37 -4 -71 1 -36 -2 -64 -9 -68 -12 -7 -15
-112 -4 -236 l6 -80 7 55 c4 30 7 78 8 107 1 32 7 57 16 67 10 10 13 24 9 41
-3 14 -2 31 3 38 15 19 13 89 -3 125 -16 35 -20 37 -29 22z"/>
<path d="M3892 8808 c7 -19 38 -22 38 -4 0 10 -9 16 -21 16 -12 0 -19 -5 -17
-12z"/>
<path d="M3985 8803 c-37 -10 -48 -45 -12 -42 48 4 82 -1 68 -10 -8 -5 -19 -7
-26 -5 -20 8 -57 -29 -50 -49 8 -20 38 -22 84 -6 28 10 32 15 29 43 -3 34 6
37 84 23 21 -4 40 -2 43 3 3 6 -3 10 -15 10 -12 0 -29 7 -38 16 -12 13 -27 15
-68 10 -31 -4 -55 -2 -59 4 -7 11 -8 11 -40 3z"/>
<path d="M10695 8781 c-3 -11 -9 -21 -13 -21 -4 0 -7 -18 -7 -40 -1 -32 2 -37
13 -28 8 7 12 24 10 40 -3 19 0 28 9 28 15 0 16 9 4 29 -7 11 -10 9 -16 -8z"/>
<path d="M5231 8774 c0 -11 3 -14 6 -6 3 7 2 16 -1 19 -3 4 -6 -2 -5 -13z"/>
<path d="M10218 8753 c7 -3 16 -2 19 1 4 3 -2 6 -13 5 -11 0 -14 -3 -6 -6z"/>
<path d="M10886 8741 c-3 -5 1 -11 9 -15 15 -6 29 7 18 18 -9 9 -21 8 -27 -3z"/>
<path d="M4415 8730 c-7 -12 2 -30 16 -30 12 0 12 27 0 35 -5 3 -12 1 -16 -5z"/>
<path d="M4197 8679 c-28 -32 -18 -53 26 -57 37 -3 38 -2 32 25 -11 47 -14 53
-27 53 -8 0 -22 -9 -31 -21z m13 -39 c0 -5 -4 -10 -10 -10 -5 0 -10 5 -10 10
0 6 5 10 10 10 6 0 10 -4 10 -10z"/>
<path d="M5240 8678 c1 -12 7 -45 15 -73 l14 -50 -2 69 c-1 45 -6 71 -14 74
-8 2 -13 -5 -13 -20z"/>
<path d="M4300 8660 c6 -11 13 -20 15 -20 3 0 5 9 5 20 0 11 -7 20 -15 20 -13
0 -14 -4 -5 -20z"/>
<path d="M10580 8671 c0 -6 5 -13 10 -16 6 -3 10 1 10 9 0 9 -4 16 -10 16 -5
0 -10 -4 -10 -9z"/>
<path d="M11120 8669 c0 -5 5 -7 10 -4 6 3 10 8 10 11 0 2 -4 4 -10 4 -5 0
-10 -5 -10 -11z"/>
<path d="M11350 8631 c0 -5 9 -7 20 -4 11 3 20 7 20 9 0 2 -9 4 -20 4 -11 0
-20 -4 -20 -9z"/>
<path d="M4306 8605 c-3 -9 0 -15 9 -15 9 0 12 6 9 15 -4 8 -7 15 -9 15 -2 0
-5 -7 -9 -15z"/>
<path d="M6690 8589 c0 -5 5 -7 10 -4 6 3 10 8 10 11 0 2 -4 4 -10 4 -5 0 -10
-5 -10 -11z"/>
<path d="M10786 8492 c-4 -7 -5 -12 -2 -12 2 0 11 -3 20 -6 9 -3 16 -1 16 6 0
6 -4 9 -9 6 -5 -4 -11 -1 -13 6 -3 9 -6 9 -12 0z"/>
<path d="M262 8388 c3 -7 15 -15 27 -16 16 -3 22 1 19 10 -3 7 -15 15 -27 16
-16 3 -22 -1 -19 -10z"/>
<path d="M5304 8336 c0 -30 6 -51 14 -54 14 -4 17 29 3 44 -5 5 -11 20 -14 34
-3 14 -4 3 -3 -24z"/>
<path d="M0 8321 c0 -12 5 -21 10 -21 6 0 10 6 10 14 0 8 -4 18 -10 21 -5 3
-10 -3 -10 -14z"/>
<path d="M7050 8310 c0 -5 7 -10 15 -10 8 0 15 5 15 10 0 6 -7 10 -15 10 -8 0
-15 -4 -15 -10z"/>
<path d="M828 8268 c9 -9 15 -9 24 0 9 9 7 12 -12 12 -19 0 -21 -3 -12 -12z"/>
<path d="M5322 8250 c0 -14 2 -19 5 -12 2 6 2 18 0 25 -3 6 -5 1 -5 -13z"/>
<path d="M5216 8175 c-9 -19 -23 -35 -31 -35 -11 0 -15 -14 -15 -55 0 -31 -4
-55 -10 -55 -14 0 -31 -46 -24 -65 4 -8 12 -15 19 -15 18 0 47 29 40 41 -3 4
1 20 10 33 9 14 18 33 19 43 2 11 13 19 29 21 31 4 34 22 12 75 -21 50 -30 52
-49 12z"/>
<path d="M903 8093 c-23 -9 -14 -22 28 -43 46 -24 59 -22 29 5 -11 10 -20 24
-20 32 0 13 -14 16 -37 6z"/>
<path d="M7177 8094 c-8 -8 3 -34 14 -34 5 0 9 9 9 20 0 19 -11 26 -23 14z"/>
<path d="M7303 8083 c-28 -5 -30 -23 -3 -30 11 -3 20 -12 20 -19 0 -8 9 -14
20 -14 14 0 20 -7 20 -23 0 -29 29 -57 58 -57 18 0 22 6 22 30 0 35 -30 69
-62 71 -14 1 -5 6 20 12 23 5 42 13 42 17 0 4 -21 10 -46 14 -48 6 -54 6 -91
-1z"/>
<path d="M5351 8025 c0 -35 2 -37 11 -19 7 15 7 28 -1 40 -9 16 -10 12 -10
-21z"/>
<path d="M7460 8050 c-14 -4 -19 -8 -12 -9 6 -1 12 -8 12 -16 0 -8 9 -15 20
-15 11 0 20 7 20 15 0 8 5 15 10 15 6 0 10 5 10 10 0 12 -24 12 -60 0z"/>
<path d="M1763 8024 c-8 -20 4 -30 50 -42 42 -12 57 1 42 36 -8 16 -8 16 -12
0 -6 -24 -23 -23 -23 2 0 25 -47 28 -57 4z"/>
<path d="M1981 8011 c-10 -6 -10 -10 -1 -16 13 -8 24 -1 19 14 -3 6 -10 7 -18
2z"/>
<path d="M2071 7974 c0 -11 3 -14 6 -6 3 7 2 16 -1 19 -3 4 -6 -2 -5 -13z"/>
<path d="M470 7965 c0 -9 5 -15 11 -13 6 2 11 8 11 13 0 5 -5 11 -11 13 -6 2
-11 -4 -11 -13z"/>
<path d="M1120 7970 c0 -5 5 -10 11 -10 5 0 7 5 4 10 -3 6 -8 10 -11 10 -2 0
-4 -4 -4 -10z"/>
<path d="M5365 7945 c3 -16 11 -68 17 -115 5 -47 17 -110 26 -140 14 -47 17
-51 20 -27 4 34 -47 288 -61 302 -6 7 -7 0 -2 -20z"/>
<path d="M7570 7945 c0 -17 2 -18 24 -9 23 9 20 24 -4 24 -11 0 -20 -7 -20
-15z"/>
<path d="M1985 7907 c-4 -10 -5 -21 -1 -24 10 -10 18 4 13 24 -4 17 -4 17 -12
0z"/>
<path d="M2035 7900 c-3 -5 -1 -10 4 -10 6 0 11 5 11 10 0 6 -2 10 -4 10 -3 0
-8 -4 -11 -10z"/>
<path d="M5145 7785 c4 -44 12 -83 18 -86 5 -4 7 -11 4 -16 -4 -6 0 -18 7 -29
12 -16 13 -9 10 49 -1 37 -6 72 -9 78 -4 5 -8 21 -10 35 -1 14 -8 31 -15 37
-9 9 -10 -5 -5 -68z"/>
<path d="M4920 7833 c0 -4 5 -15 10 -23 8 -13 10 -13 10 2 0 9 -4 20 -10 23
-5 3 -10 3 -10 -2z"/>
<path d="M1840 7730 c0 -5 5 -10 11 -10 5 0 7 5 4 10 -3 6 -8 10 -11 10 -2 0
-4 -4 -4 -10z"/>
<path d="M2658 7723 c-13 -3 -18 -14 -18 -38 0 -33 1 -34 30 -23 38 13 44 22
25 38 -8 7 -12 16 -9 21 5 9 1 10 -28 2z"/>
<path d="M7575 7720 c-3 -5 1 -10 9 -10 9 0 16 5 16 10 0 6 -4 10 -9 10 -6 0
-13 -4 -16 -10z"/>
<path d="M6598 7713 c7 -3 16 -2 19 1 4 3 -2 6 -13 5 -11 0 -14 -3 -6 -6z"/>
<path d="M2721 7663 c-1 -24 4 -43 9 -43 12 0 12 37 0 65 -7 15 -9 10 -9 -22z"/>
<path d="M3536 7691 c-4 -7 -5 -15 -2 -18 9 -9 19 4 14 18 -4 11 -6 11 -12 0z"/>
<path d="M2198 7643 c7 -3 16 -2 19 1 4 3 -2 6 -13 5 -11 0 -14 -3 -6 -6z"/>
<path d="M2508 7633 c7 -3 16 -2 19 1 4 3 -2 6 -13 5 -11 0 -14 -3 -6 -6z"/>
<path d="M5294 7615 c-18 -28 -12 -41 21 -47 17 -2 20 3 20 31 0 43 -18 50
-41 16z"/>
<path d="M5181 7614 c0 -11 3 -14 6 -6 3 7 2 16 -1 19 -3 4 -6 -2 -5 -13z"/>
<path d="M5431 7598 c1 -13 5 -34 9 -48 7 -21 8 -19 9 17 1 23 -3 45 -9 48 -6
3 -10 -4 -9 -17z"/>
<path d="M7640 7590 c0 -11 4 -20 9 -20 11 0 22 26 14 34 -12 12 -23 5 -23
-14z"/>
<path d="M5240 7535 c0 -8 7 -15 15 -15 8 0 15 7 15 15 0 8 -7 15 -15 15 -8 0
-15 -7 -15 -15z"/>
<path d="M3760 7514 c0 -9 5 -14 12 -12 18 6 21 28 4 28 -9 0 -16 -7 -16 -16z"/>
<path d="M5451 7498 c0 -13 7 -57 15 -98 8 -41 18 -93 22 -115 4 -22 10 -35
14 -30 4 6 0 46 -8 90 -8 44 -18 99 -21 123 -6 45 -23 69 -22 30z"/>
<path d="M7894 7436 c-17 -46 19 -117 46 -90 18 18 25 85 9 95 -21 13 -49 11
-55 -5z"/>
<path d="M8120 7410 c0 -5 5 -10 10 -10 6 0 10 5 10 10 0 6 -4 10 -10 10 -5 0
-10 -4 -10 -10z"/>
<path d="M8009 7384 c-1 -11 -3 -34 -5 -52 -2 -30 -1 -32 14 -20 10 7 22 20
29 28 23 28 14 -9 -9 -40 -19 -26 -28 -30 -70 -30 -26 0 -48 4 -48 9 0 5 -23
11 -50 13 -44 3 -51 0 -55 -17 -12 -54 -10 -58 25 -70 23 -8 34 -18 32 -28 -1
-10 6 -17 20 -20 22 -3 22 -4 4 -12 -13 -6 -21 -5 -24 3 -5 17 -32 15 -32 -3
0 -8 7 -15 15 -15 12 0 13 -4 5 -19 -14 -27 -13 -41 4 -41 21 0 30 -18 17 -34
-8 -10 -4 -16 17 -27 15 -8 30 -18 34 -23 4 -6 12 -5 20 2 23 18 40 -21 32
-73 -3 -24 -3 -48 0 -53 9 -15 45 -2 51 19 4 12 16 19 31 19 20 0 24 -5 24
-30 0 -29 1 -30 45 -28 25 0 45 5 45 10 0 14 18 9 24 -7 4 -11 0 -15 -11 -13
-30 5 -27 -33 4 -58 33 -28 55 -31 46 -7 -5 13 -2 15 11 10 10 -4 20 -7 22 -7
2 0 4 -13 4 -30 0 -17 5 -30 13 -30 6 0 13 -11 13 -25 4 -59 34 -78 34 -22 1
27 2 29 11 14 6 -10 8 -24 5 -32 -2 -7 2 -19 10 -25 13 -12 15 -10 18 15 1 6
12 25 26 43 25 34 50 42 50 17 0 -19 14 -19 31 1 7 8 21 13 31 11 10 -3 18 0
18 6 0 17 -15 38 -26 36 -22 -4 -34 2 -34 18 0 13 3 14 12 5 23 -23 35 -13 35
28 0 39 -17 54 -32 30 -9 -14 -27 -12 -22 3 6 16 -31 67 -49 67 -8 0 -14 -4
-14 -10 0 -6 -10 -5 -25 2 -16 7 -24 17 -20 26 4 11 -2 13 -30 8 -22 -4 -35
-3 -35 4 0 5 -6 10 -14 10 -13 0 -26 20 -26 40 0 4 8 7 17 6 10 0 19 7 21 17
4 22 -33 24 -54 2 -8 -8 -21 -12 -29 -9 -18 7 -10 24 11 24 8 0 14 7 14 15 0
8 -9 15 -19 15 -14 0 -21 9 -26 31 -4 17 -14 33 -22 36 -11 4 -13 15 -9 39 7
34 -8 54 -26 36 -6 -6 -4 -22 6 -46 14 -34 14 -36 -3 -36 -10 0 -24 11 -31 25
-7 14 -17 25 -22 25 -4 0 -8 6 -8 14 0 7 -11 25 -25 40 -23 25 -24 28 -9 51
31 47 79 44 72 -6 -3 -18 -1 -26 6 -21 6 3 20 8 31 9 11 2 24 8 29 13 13 13
-2 43 -18 37 -20 -8 -56 21 -56 44 0 10 -7 19 -15 19 -8 0 -15 5 -15 11 0 5
-8 9 -18 7 -11 -2 -26 3 -35 11 -15 12 -17 11 -18 -5z m-136 -151 c-7 -2 -19
-2 -25 0 -7 3 -2 5 12 5 14 0 19 -2 13 -5z m67 -12 c13 -25 -16 -60 -34 -40
-8 8 -8 13 2 16 6 3 12 13 12 24 0 24 7 24 20 0z m320 -341 c0 -5 -9 -10 -21
-10 -11 0 -17 5 -14 10 3 6 13 10 21 10 8 0 14 -4 14 -10z m153 -23 c3 -7 -1
-24 -8 -36 l-12 -24 -7 27 c-7 28 -1 46 14 46 4 0 10 -6 13 -13z m-107 -39
c18 -20 18 -21 1 -15 -10 4 -23 7 -28 7 -5 0 -9 7 -9 15 0 21 14 19 36 -7z
m144 -53 c0 -8 -7 -15 -15 -15 -9 0 -12 6 -9 15 4 8 10 15 15 15 5 0 9 -7 9
-15z"/>
<path d="M4416 7382 c-3 -6 -1 -14 5 -17 15 -10 25 3 12 16 -7 7 -13 7 -17 1z"/>
<path d="M4380 7370 c0 -5 5 -10 10 -10 6 0 10 5 10 10 0 6 -4 10 -10 10 -5 0
-10 -4 -10 -10z"/>
<path d="M8275 7369 c-4 -6 -2 -15 5 -19 17 -10 42 -1 37 14 -5 16 -34 19 -42
5z"/>
<path d="M4240 7334 c0 -8 5 -12 10 -9 6 4 8 11 5 16 -9 14 -15 11 -15 -7z"/>
<path d="M4412 7323 c-18 -7 4 -33 27 -33 16 0 41 18 41 30 0 7 -51 9 -68 3z"/>
<path d="M4975 7310 c3 -5 8 -10 11 -10 2 0 4 5 4 10 0 6 -5 10 -11 10 -5 0
-7 -4 -4 -10z"/>
<path d="M4371 7291 c-14 -4 -26 -12 -29 -19 -5 -15 14 -16 23 -1 4 6 13 8 21
5 8 -3 14 1 14 9 0 8 -1 15 -2 14 -2 -1 -14 -4 -27 -8z"/>
<path d="M5501 7224 c0 -11 3 -14 6 -6 3 7 2 16 -1 19 -3 4 -6 -2 -5 -13z"/>
<path d="M7545 7230 c4 -6 11 -8 16 -5 14 9 11 15 -7 15 -8 0 -12 -5 -9 -10z"/>
<path d="M7692 7218 c2 -12 10 -23 18 -23 22 0 19 39 -3 43 -15 3 -18 -1 -15
-20z"/>
<path d="M7745 7230 c3 -5 8 -10 11 -10 2 0 4 5 4 10 0 6 -5 10 -11 10 -5 0
-7 -4 -4 -10z"/>
<path d="M9870 7194 c0 -8 5 -12 10 -9 6 4 8 11 5 16 -9 14 -15 11 -15 -7z"/>
<path d="M4424 7104 c3 -9 6 -18 6 -20 0 -2 7 -4 15 -4 13 0 13 3 3 20 -15 24
-33 27 -24 4z"/>
<path d="M8830 6995 c-8 -9 -8 -15 0 -20 12 -8 50 3 50 15 0 14 -39 18 -50 5z"/>
<path d="M7880 6990 c0 -5 5 -10 10 -10 6 0 10 5 10 10 0 6 -4 10 -10 10 -5 0
-10 -4 -10 -10z"/>
<path d="M4801 6974 c0 -11 3 -14 6 -6 3 7 2 16 -1 19 -3 4 -6 -2 -5 -13z"/>
<path d="M8571 6932 c-13 -25 4 -54 19 -32 12 19 13 37 1 45 -6 3 -14 -3 -20
-13z"/>
<path d="M8622 6840 c-25 -23 -29 -50 -9 -50 23 0 50 37 40 54 -8 14 -11 14
-31 -4z"/>
<path d="M8584 6758 c2 -16 -3 -33 -11 -39 -11 -10 -10 -14 7 -26 12 -8 30
-13 41 -10 37 10 18 -12 -21 -24 -22 -7 -40 -17 -40 -23 0 -5 12 -23 27 -38
19 -20 24 -31 16 -39 -8 -8 -17 -8 -31 0 -29 16 -52 14 -52 -4 0 -21 41 -36
59 -21 12 9 13 8 8 -7 -8 -21 26 -37 78 -37 19 0 36 -4 40 -10 8 -13 35 -1 35
17 0 8 -6 13 -13 10 -17 -6 -48 17 -45 34 2 8 -7 15 -19 17 -13 2 -23 -2 -23
-8 0 -6 -5 -8 -11 -4 -19 11 6 24 61 31 59 7 83 -9 72 -49 -4 -18 -2 -20 22
-16 21 4 25 2 21 -11 -3 -10 5 -20 22 -28 30 -14 30 -14 33 7 5 30 0 40 -21
40 -18 0 -20 4 -14 29 5 24 2 32 -17 42 -13 7 -25 15 -28 18 -14 18 -61 40
-73 35 -8 -3 -20 3 -28 12 -11 14 -11 18 5 30 10 7 23 15 29 17 6 2 7 9 3 16
-5 8 -24 11 -49 9 -33 -2 -43 1 -45 15 -2 9 -10 17 -17 17 -7 0 -16 6 -19 13
-3 6 -4 0 -2 -15z m76 -112 c0 -20 -27 -39 -45 -32 -22 8 -18 25 8 36 31 12
37 12 37 -4z"/>
<path d="M6466 6757 c3 -10 9 -15 12 -12 3 3 0 11 -7 18 -10 9 -11 8 -5 -6z"/>
<path d="M8508 6673 c7 -3 16 -2 19 1 4 3 -2 6 -13 5 -11 0 -14 -3 -6 -6z"/>
<path d="M8410 6633 c-23 -45 -24 -49 -9 -35 7 6 28 12 46 12 19 0 33 5 33 12
0 7 5 5 13 -5 6 -9 26 -18 42 -22 17 -3 24 -2 18 1 -7 3 -13 12 -13 20 0 8 -7
14 -15 14 -9 0 -18 7 -21 15 -4 10 -20 15 -43 15 -31 0 -40 -5 -51 -27z"/>
<path d="M9530 6564 c0 -9 5 -14 12 -12 18 6 21 28 4 28 -9 0 -16 -7 -16 -16z"/>
<path d="M8900 6532 c0 -6 -7 -12 -15 -14 -10 -2 -12 -8 -6 -17 7 -11 11 -9
21 9 6 12 9 24 6 28 -3 3 -6 0 -6 -6z"/>
<path d="M8937 6515 c-26 -26 -21 -38 13 -31 22 4 30 2 29 -7 -3 -17 17 -64
31 -72 7 -4 17 -2 23 4 16 16 63 14 81 -4 19 -19 46 -19 46 -1 0 8 -10 22 -22
31 -13 8 -22 18 -20 20 6 12 1 35 -7 35 -5 0 -22 5 -38 11 -15 7 -35 13 -43
14 -8 2 -29 6 -46 10 -22 5 -35 2 -47 -10z"/>
<path d="M9148 6493 c7 -3 16 -2 19 1 4 3 -2 6 -13 5 -11 0 -14 -3 -6 -6z"/>
<path d="M11188 6435 c-4 -4 0 -18 8 -30 16 -25 64 -61 64 -48 0 15 -65 85
-72 78z"/>
<path d="M8850 6410 c0 -5 7 -10 15 -10 8 0 15 5 15 10 0 6 -7 10 -15 10 -8 0
-15 -4 -15 -10z"/>
<path d="M9185 6360 c-3 -5 -1 -10 4 -10 6 0 11 5 11 10 0 6 -2 10 -4 10 -3 0
-8 -4 -11 -10z"/>
<path d="M9196 6308 c-20 -29 -20 -38 0 -38 18 0 43 27 44 48 0 20 -28 14 -44
-10z"/>
<path d="M9509 6316 c-1 -1 -3 -11 -4 -24 -2 -16 2 -22 14 -20 21 4 27 45 6
45 -8 0 -16 -1 -16 -1z"/>
<path d="M11327 5603 c-4 -3 -7 -11 -7 -17 0 -6 5 -5 12 2 6 6 9 14 7 17 -3 3
-9 2 -12 -2z"/>
<path d="M5938 4203 c7 -3 16 -2 19 1 4 3 -2 6 -13 5 -11 0 -14 -3 -6 -6z"/>
<path d="M450 2989 c0 -5 5 -7 10 -4 6 3 10 8 10 11 0 2 -4 4 -10 4 -5 0 -10
-5 -10 -11z"/>
<path d="M4741 2975 c-24 -24 -21 -56 4 -35 7 6 19 9 26 8 16 -3 20 44 4 48
-5 1 -21 -8 -34 -21z"/>
<path d="M201 2724 c0 -11 3 -14 6 -6 3 7 2 16 -1 19 -3 4 -6 -2 -5 -13z"/>
<path d="M14156 2684 c-6 -16 12 -18 32 -5 11 6 9 9 -7 14 -12 3 -22 -1 -25
-9z"/>
<path d="M15495 2665 c-16 -14 -38 -25 -47 -25 -12 0 -18 -8 -18 -21 0 -29 35
-17 78 27 48 50 40 62 -13 19z"/>
<path d="M221 2594 c0 -11 3 -14 6 -6 3 7 2 16 -1 19 -3 4 -6 -2 -5 -13z"/>
<path d="M15328 2543 c7 -3 16 -2 19 1 4 3 -2 6 -13 5 -11 0 -14 -3 -6 -6z"/>
<path d="M325 2374 c-16 -8 -32 -19 -35 -23 -3 -5 -30 -25 -60 -44 -30 -20
-73 -50 -95 -67 -22 -16 -61 -42 -87 -57 l-48 -28 0 -132 c0 -120 2 -132 17
-126 24 9 53 41 53 57 0 8 9 18 20 21 11 3 20 11 20 16 0 5 7 9 15 9 8 0 15 6
15 14 0 7 14 19 30 26 17 7 36 20 43 29 20 27 163 131 180 131 29 0 47 -12 47
-31 0 -10 5 -19 10 -19 6 0 10 23 10 51 0 28 5 60 11 72 9 16 9 22 0 25 -6 2
-11 9 -11 15 0 7 -16 22 -35 35 -19 12 -35 27 -35 32 0 15 -31 12 -65 -6z"/>
<path d="M14945 2330 c-3 -5 1 -10 10 -10 9 0 13 5 10 10 -3 6 -8 10 -10 10
-2 0 -7 -4 -10 -10z"/>
<path d="M14990 2319 c7 -11 14 -18 17 -15 8 8 -5 36 -17 36 -7 0 -7 -6 0 -21z"/>
<path d="M520 2263 c0 -13 5 -23 10 -23 13 0 13 11 0 30 -8 12 -10 11 -10 -7z"/>
<path d="M545 2193 c-4 -24 -11 -43 -16 -43 -18 0 -8 -26 16 -44 14 -11 25
-29 25 -42 0 -13 3 -24 8 -24 4 0 15 -18 25 -40 19 -44 20 -45 48 -30 23 13
26 42 4 34 -11 -5 -15 1 -15 21 0 14 -5 36 -11 47 -6 11 -14 41 -18 67 -4 34
-12 48 -28 56 -12 5 -24 16 -26 25 -2 8 -8 -4 -12 -27z"/>
<path d="M6535 2142 c-16 -2 -43 -9 -60 -17 -16 -7 -74 -34 -129 -59 -54 -25
-106 -46 -116 -46 -10 0 -25 -11 -34 -25 -9 -13 -31 -32 -49 -42 -23 -12 -27
-18 -15 -21 31 -6 229 37 263 58 18 11 56 27 84 36 29 8 49 19 46 24 -4 6 -1
10 6 10 12 0 30 19 49 51 13 22 -6 36 -45 31z"/>
<path d="M6524 2025 c-11 -27 4 -45 37 -45 27 0 30 2 19 15 -7 8 -16 12 -21 9
-5 -3 -9 0 -9 5 0 6 5 11 10 11 6 0 10 5 10 10 0 16 -40 12 -46 -5z"/>
<path d="M4065 1970 c-3 -5 -1 -10 4 -10 6 0 11 5 11 10 0 6 -2 10 -4 10 -3 0
-8 -4 -11 -10z"/>
<path d="M3670 1865 c-13 -16 -6 -50 9 -41 11 7 21 56 11 56 -4 0 -13 -7 -20
-15z"/>
<path d="M3561 1846 c2 -2 15 -9 29 -15 24 -11 24 -11 6 3 -16 13 -49 24 -35
12z"/>
<path d="M5624 1376 c-22 -17 -12 -33 26 -38 18 -2 26 2 28 16 2 10 -2 22 -10
27 -18 12 -21 11 -44 -5z"/>
<path d="M5392 1244 c-7 -8 -8 -14 -3 -14 10 0 25 19 20 25 -2 1 -10 -3 -17
-11z"/>
<path d="M4467 693 c-4 -3 -4 -24 0 -47 7 -45 36 -85 48 -66 4 7 2 16 -5 20
-7 4 -9 16 -6 28 5 13 1 22 -10 26 -9 3 -14 13 -10 21 5 15 -7 29 -17 18z"/>
<path d="M7775 670 c-3 -5 -1 -10 4 -10 6 0 11 5 11 10 0 6 -2 10 -4 10 -3 0
-8 -4 -11 -10z"/>
<path d="M4540 551 c0 -6 -17 -11 -37 -13 l-38 -3 2 -82 c1 -46 -2 -83 -7 -83
-4 0 -10 -17 -14 -37 -33 -206 -34 -218 -23 -255 13 -41 43 -52 67 -23 10 12
16 13 26 4 19 -16 19 20 0 46 -17 23 -6 75 22 105 27 29 36 69 22 104 -15 41
-13 77 4 70 11 -4 14 2 14 24 -1 16 2 34 6 40 3 6 -2 15 -11 21 -15 8 -16 13
-5 31 9 15 10 26 2 40 -11 21 -30 27 -30 11z m-2 -281 c-7 -11 -16 -20 -20
-20 -11 0 -10 9 5 25 18 21 29 18 15 -5z"/>
<path d="M7600 440 c0 -5 5 -10 11 -10 5 0 7 5 4 10 -3 6 -8 10 -11 10 -2 0
-4 -4 -4 -10z"/>
<path d="M4600 295 c0 -8 6 -15 14 -15 7 0 19 7 26 15 11 13 8 15 -14 15 -16
0 -26 -5 -26 -15z"/>
<path d="M0 20 c0 -20 7 -20 757 -20 416 0 753 3 750 7 -4 3 -2 12 4 20 10 11
-114 13 -750 13 -754 0 -761 0 -761 -20z"/>
<path d="M3010 30 c0 -4 21 -7 47 -6 29 0 48 -4 51 -12 4 -13 62 -17 62 -4 0
4 12 8 27 7 14 0 28 5 30 11 2 7 -31 11 -107 11 -60 0 -110 -3 -110 -7z"/>
</g>
</svg>
